<svg xmlns="http://www.w3.org/2000/svg" width="262.5" height="499.43" fill="none" viewBox="106 110 525 998.86">
    <g id="Group 30">
        <g id="Group 2">
            <g id="iPhone-X-Mockup">
                <g id="phone">
                    <g id="body" filter="url(#filter0_d_0_4910)">
                        <path fill-rule="evenodd" clip-rule="evenodd"
                            d="M177.552 111.139H560.018C596.699 111.139 626.435 139.61 626.435 174.73V1045.27C626.435 1080.39 596.699 1108.86 560.018 1108.86H177.552C140.871 1108.86 111.136 1080.39 111.136 1045.27V174.73C111.136 139.61 140.871 111.139 177.552 111.139Z"
                            fill="#213648"></path>
                    </g>
                    <g id="frame">
                        <path id="reflect-frame-top" opacity="0.595562" fill-rule="evenodd" clip-rule="evenodd"
                            d="M561.497 110H175.845C157.84 111.098 141.235 119.314 126.029 134.648C135.808 126.112 153.25 114.689 176.309 114.689C176.309 114.689 545.66 114.689 561.033 114.689C584.093 114.689 601.534 126.112 611.313 134.648C596.108 119.314 579.502 111.098 561.497 110Z"
                            fill="url(#paint0_linear_0_4910)" fill-opacity="0.65"></path>
                        <path id="reflect-frame-right" opacity="0.75" fill-rule="evenodd" clip-rule="evenodd"
                            d="M615.999 1035.34V179.964C615.999 157.013 607.564 148.529 602.532 143.081C597.5 137.633 597.286 134.854 604.516 138.968C611.746 143.081 626.207 155.061 626.207 179.964V1035.34C626.207 1060.24 611.746 1072.22 604.516 1076.34C597.286 1080.45 597.5 1077.67 602.532 1072.22C607.564 1066.78 615.999 1058.29 615.999 1035.34Z"
                            fill="url(#paint1_linear_0_4910)"></path>
                        <path id="reflect-frame-left" opacity="0.75" fill-rule="evenodd" clip-rule="evenodd"
                            d="M121.344 1035.34V179.964C121.344 157.013 129.779 148.529 134.811 143.081C139.842 137.633 140.057 134.854 132.827 138.968C125.597 143.081 111.136 155.061 111.136 179.964V1035.34C111.136 1060.24 125.597 1072.22 132.827 1076.34C140.057 1080.45 139.842 1077.67 134.811 1072.22C129.779 1066.78 121.344 1058.29 121.344 1035.34Z"
                            fill="url(#paint2_linear_0_4910)"></path>
                    </g>
                    <g id="controls">
                        <path id="vol+" fill-rule="evenodd" clip-rule="evenodd"
                            d="M106 317.113C106 314.904 107.791 313.113 110 313.113H111.929C114.138 313.113 115.929 314.904 115.929 317.113V437.815C115.929 440.024 114.138 441.815 111.929 441.815H110C107.791 441.815 106 440.024 106 437.815V317.113Z"
                            fill="#2E423C"></path>
                        <path id="power" fill-rule="evenodd" clip-rule="evenodd"
                            d="M621.071 422.087C621.071 419.878 622.862 418.087 625.071 418.087H627C629.209 418.087 631 419.878 631 422.087V507.987C631 510.196 629.209 511.987 627 511.987H625.071C622.862 511.987 621.071 510.196 621.071 507.987V422.087Z"
                            fill="#2E423C"></path>
                    </g>
                </g>
                <g id="Screen" clip-path="url(#clip0_0_4910)">
                    <path id="Screen Mask" fill-rule="evenodd" clip-rule="evenodd"
                        d="M323.352 134.889L174.54 134.889C152.331 134.889 136.148 150.016 136.148 169.772V1014.55C136.148 1040.31 161.153 1063.13 189.427 1063.13H548.093C575.328 1063.13 601.371 1040.13 601.371 1014.55V172.055C601.371 148.376 583.792 135.03 562.98 134.889L411.808 134.889C411.235 134.983 400.851 139.252 396.462 150.016C392.073 160.779 383.242 169.359 373.573 169.359H362.343C357.747 169.359 345.647 164.899 339.521 150.016C333.394 135.132 323.925 134.983 323.352 134.889Z"
                        fill="white"></path>
                    <mask id="mask0_0_4910" style="mask-type:luminance" maskUnits="userSpaceOnUse" x="136" y="134"
                        width="466" height="930">
                        <path id="Screen Mask_2" fill-rule="evenodd" clip-rule="evenodd"
                            d="M323.352 134.889L174.54 134.889C152.331 134.889 136.148 150.016 136.148 169.772V1014.55C136.148 1040.31 161.153 1063.13 189.427 1063.13H548.093C575.328 1063.13 601.371 1040.13 601.371 1014.55V172.055C601.371 148.376 583.792 135.03 562.98 134.889L411.808 134.889C411.235 134.983 400.851 139.252 396.462 150.016C392.073 160.779 383.242 169.359 373.573 169.359H362.343C357.747 169.359 345.647 164.899 339.521 150.016C333.394 135.132 323.925 134.983 323.352 134.889Z"
                            fill="white"></path>
                    </mask>
                    <g mask="url(#mask0_0_4910)">
                        <rect id="Rectangle" x="136" y="134.889" width="466" height="930"
                            fill="url(#paint3_linear_0_4910)"></rect>
                        <path id="12:49"
                            d="M295.008 392V357.344H286.752V352.064C289.397 352.064 291.531 351.819 293.152 351.328C294.795 350.816 296.021 350.091 296.832 349.152C297.643 348.192 298.123 347.051 298.272 345.728H304.48V392H295.008ZM314.991 392V387.392V385.024C314.991 382.677 315.428 380.651 316.303 378.944C317.178 377.216 318.33 375.723 319.759 374.464C321.21 373.184 322.788 372.064 324.495 371.104C326.223 370.144 327.951 369.237 329.679 368.384C331.407 367.531 332.986 366.677 334.415 365.824C335.866 364.949 337.028 363.979 337.903 362.912C338.778 361.845 339.215 360.587 339.215 359.136C339.215 357.28 338.564 355.765 337.263 354.592C335.983 353.419 334.223 352.832 331.983 352.832C329.658 352.832 327.684 353.504 326.063 354.848C324.442 356.192 323.439 358.219 323.055 360.928H314.127C314.17 357.984 314.852 355.317 316.175 352.928C317.519 350.517 319.524 348.608 322.191 347.2C324.858 345.792 328.207 345.088 332.239 345.088C335.695 345.088 338.671 345.675 341.167 346.848C343.684 348.021 345.626 349.653 346.991 351.744C348.356 353.835 349.039 356.277 349.039 359.072C349.039 361.397 348.612 363.403 347.759 365.088C346.906 366.773 345.775 368.213 344.367 369.408C342.959 370.603 341.412 371.648 339.727 372.544C338.042 373.44 336.356 374.272 334.671 375.04C333.007 375.808 331.471 376.597 330.063 377.408C328.655 378.197 327.524 379.093 326.671 380.096C325.818 381.099 325.391 382.304 325.391 383.712V384.128H348.975V392H314.991ZM365.408 359.712V369.728H355.168V359.712H365.408ZM365.408 381.824V391.808H355.168V381.824H365.408ZM392.903 345.728H402.087V373.92H409.223V381.76H402.087V392H393.095L393.127 381.76H371.815V374.08L392.903 345.728ZM380.455 373.92H393.127V356.96L380.455 373.92ZM430.871 392.704C427.991 392.704 425.303 392.149 422.807 391.04C420.311 389.931 418.273 388.373 416.695 386.368C415.116 384.341 414.231 381.973 414.039 379.264H422.935C423.319 381.056 424.172 382.517 425.495 383.648C426.817 384.757 428.481 385.312 430.487 385.312C432.705 385.312 434.647 384.789 436.311 383.744C437.996 382.699 439.255 381.035 440.087 378.752C440.94 376.469 441.239 373.483 440.983 369.792C440.385 370.923 439.553 371.915 438.487 372.768C437.441 373.6 436.215 374.251 434.807 374.72C433.399 375.168 431.831 375.392 430.103 375.392C426.967 375.392 424.183 374.805 421.751 373.632C419.34 372.437 417.441 370.752 416.055 368.576C414.689 366.379 414.007 363.776 414.007 360.768C414.007 357.739 414.732 355.04 416.183 352.672C417.633 350.304 419.66 348.448 422.263 347.104C424.865 345.76 427.916 345.088 431.415 345.088C435.34 345.088 438.721 346.027 441.559 347.904C444.417 349.76 446.604 352.405 448.119 355.84C449.655 359.253 450.423 363.275 450.423 367.904C450.423 373.429 449.633 378.037 448.055 381.728C446.497 385.397 444.257 388.149 441.335 389.984C438.412 391.797 434.924 392.704 430.871 392.704ZM431.703 367.968C433.004 367.968 434.263 367.68 435.479 367.104C436.716 366.507 437.729 365.76 438.519 364.864C439.308 363.968 439.703 363.04 439.703 362.08C439.724 360.011 439.393 358.24 438.711 356.768C438.049 355.275 437.111 354.133 435.895 353.344C434.7 352.555 433.303 352.16 431.703 352.16C430.231 352.16 428.919 352.501 427.767 353.184C426.615 353.867 425.708 354.827 425.047 356.064C424.385 357.301 424.055 358.731 424.055 360.352C424.055 362.763 424.759 364.64 426.167 365.984C427.575 367.307 429.42 367.968 431.703 367.968Z"
                            fill="white"></path>
                    </g>
                </g>
            </g>
        </g>
        <g id="Group 29" clip-path="url(#clip1_0_4910)">
            <g id="Rectangle_2" filter="url(#filter1_d_0_4910)">
                <rect x="150" y="444" width="436" height="174" rx="5" fill="#FBFCFE"></rect>
            </g>
            <g id="Group 28" clip-path="url(#clip2_0_4910)">
                <path id="PayAPI"
                    d="M183.62 496V481.54H188.94C189.993 481.54 190.937 481.723 191.77 482.09C192.603 482.45 193.26 482.983 193.74 483.69C194.227 484.397 194.47 485.26 194.47 486.28C194.47 487.24 194.257 488.06 193.83 488.74C193.403 489.42 192.803 489.94 192.03 490.3C191.263 490.66 190.36 490.84 189.32 490.84H186.56V496H183.62ZM186.53 488.58H189.24C189.973 488.58 190.573 488.347 191.04 487.88C191.507 487.407 191.74 486.823 191.74 486.13C191.74 485.41 191.493 484.84 191 484.42C190.507 483.993 189.907 483.78 189.2 483.78H186.53V488.58ZM199.093 496.2C198.44 496.2 197.847 496.077 197.313 495.83C196.787 495.583 196.37 495.227 196.063 494.76C195.757 494.287 195.603 493.713 195.603 493.04C195.603 491.907 196.027 491.047 196.873 490.46C197.72 489.867 199.057 489.56 200.883 489.54L202.183 489.52V488.9C202.183 488.427 202.043 488.063 201.763 487.81C201.49 487.55 201.06 487.423 200.473 487.43C200.053 487.437 199.65 487.537 199.263 487.73C198.883 487.923 198.62 488.26 198.473 488.74H196.043C196.083 487.993 196.3 487.38 196.693 486.9C197.093 486.413 197.63 486.053 198.303 485.82C198.977 485.58 199.747 485.46 200.613 485.46C201.667 485.46 202.513 485.593 203.153 485.86C203.793 486.12 204.257 486.497 204.543 486.99C204.837 487.477 204.983 488.057 204.983 488.73V496H202.543L202.303 494.22C201.95 494.967 201.507 495.483 200.973 495.77C200.447 496.057 199.82 496.2 199.093 496.2ZM200.083 494.28C200.343 494.28 200.597 494.233 200.843 494.14C201.097 494.04 201.323 493.91 201.523 493.75C201.723 493.583 201.88 493.397 201.993 493.19C202.113 492.983 202.177 492.77 202.183 492.55V491.02L201.133 491.04C200.647 491.047 200.193 491.107 199.773 491.22C199.353 491.327 199.013 491.503 198.753 491.75C198.5 491.997 198.373 492.33 198.373 492.75C198.373 493.23 198.537 493.607 198.863 493.88C199.197 494.147 199.603 494.28 200.083 494.28ZM208.6 499.3C207.894 499.3 207.394 499.24 207.1 499.12C206.807 499.007 206.66 498.95 206.66 498.95V497.09L207.69 497.13C208.137 497.157 208.497 497.133 208.77 497.06C209.044 496.993 209.25 496.903 209.39 496.79C209.53 496.677 209.63 496.557 209.69 496.43C209.757 496.31 209.804 496.213 209.83 496.14L210.02 495.57L206 485.66H208.89L211.37 492.4L213.87 485.66H216.73L212.54 496.06C212.18 496.94 211.797 497.613 211.39 498.08C210.99 498.547 210.557 498.867 210.09 499.04C209.63 499.213 209.134 499.3 208.6 499.3ZM216.32 496L221.49 481.54H224.58L229.75 496H226.84L225.66 492.65H220.45L219.25 496H216.32ZM221.11 490.1H224.95L223.04 484.35L221.11 490.1ZM231.921 496V481.54H237.241C238.294 481.54 239.237 481.723 240.071 482.09C240.904 482.45 241.561 482.983 242.041 483.69C242.527 484.397 242.771 485.26 242.771 486.28C242.771 487.24 242.557 488.06 242.131 488.74C241.704 489.42 241.104 489.94 240.331 490.3C239.564 490.66 238.661 490.84 237.621 490.84H234.861V496H231.921ZM234.831 488.58H237.541C238.274 488.58 238.874 488.347 239.341 487.88C239.807 487.407 240.041 486.823 240.041 486.13C240.041 485.41 239.794 484.84 239.301 484.42C238.807 483.993 238.207 483.78 237.501 483.78H234.831V488.58ZM244.968 496V481.54H247.878V496H244.968Z"
                    fill="#BA4270"></path>
                <path id="Just Now" opacity="0.5"
                    d="M473.777 496.2C473.264 496.2 472.78 496.14 472.327 496.02C471.88 495.9 471.584 495.81 471.437 495.75L471.567 493.98C471.774 494.053 472.01 494.147 472.277 494.26C472.55 494.367 472.887 494.42 473.287 494.42C473.94 494.42 474.387 494.24 474.627 493.88C474.874 493.52 474.997 492.913 474.997 492.06V481.54H476.847V492.59C476.847 493.357 476.76 494.01 476.587 494.55C476.414 495.09 476.104 495.5 475.657 495.78C475.217 496.06 474.59 496.2 473.777 496.2ZM483.71 496.2C483.17 496.193 482.66 496.117 482.18 495.97C481.707 495.817 481.287 495.593 480.92 495.3C480.554 495.007 480.264 494.643 480.05 494.21C479.844 493.77 479.74 493.26 479.74 492.68V485.66H481.59V492.49C481.59 493.163 481.797 493.71 482.21 494.13C482.63 494.55 483.26 494.76 484.1 494.76C484.86 494.76 485.47 494.563 485.93 494.17C486.397 493.77 486.63 493.177 486.63 492.39V485.66H488.47V496H487L486.81 494.02C486.684 494.54 486.467 494.96 486.16 495.28C485.86 495.6 485.497 495.837 485.07 495.99C484.65 496.137 484.197 496.207 483.71 496.2ZM495.232 496.2C494.512 496.2 493.842 496.09 493.222 495.87C492.609 495.643 492.099 495.293 491.692 494.82C491.285 494.34 491.032 493.73 490.932 492.99H492.612C492.699 493.397 492.865 493.737 493.112 494.01C493.359 494.277 493.662 494.48 494.022 494.62C494.389 494.753 494.789 494.82 495.222 494.82C495.922 494.82 496.485 494.69 496.912 494.43C497.339 494.17 497.552 493.77 497.552 493.23C497.552 492.85 497.439 492.547 497.212 492.32C496.992 492.087 496.645 491.917 496.172 491.81L494.032 491.28C493.199 491.08 492.532 490.767 492.032 490.34C491.539 489.913 491.289 489.317 491.282 488.55C491.282 487.943 491.429 487.41 491.722 486.95C492.015 486.49 492.452 486.127 493.032 485.86C493.619 485.593 494.349 485.46 495.222 485.46C496.349 485.46 497.255 485.713 497.942 486.22C498.629 486.72 498.989 487.457 499.022 488.43H497.382C497.315 487.937 497.095 487.547 496.722 487.26C496.349 486.967 495.842 486.82 495.202 486.82C494.549 486.82 494.012 486.953 493.592 487.22C493.179 487.48 492.972 487.887 492.972 488.44C492.972 488.807 493.119 489.097 493.412 489.31C493.712 489.517 494.145 489.69 494.712 489.83L496.792 490.35C497.265 490.477 497.659 490.643 497.972 490.85C498.285 491.057 498.532 491.287 498.712 491.54C498.892 491.793 499.019 492.06 499.092 492.34C499.172 492.613 499.212 492.877 499.212 493.13C499.212 493.763 499.055 494.31 498.742 494.77C498.429 495.223 497.975 495.577 497.382 495.83C496.789 496.077 496.072 496.2 495.232 496.2ZM505.204 496.05C504.491 496.05 503.938 495.953 503.544 495.76C503.151 495.567 502.874 495.28 502.714 494.9C502.561 494.52 502.484 494.053 502.484 493.5V487.01H500.804V485.66H502.534L502.984 482.65H504.344V485.65H506.674V487.01H504.344V493.44C504.344 493.807 504.381 494.077 504.454 494.25C504.534 494.417 504.664 494.523 504.844 494.57C505.024 494.617 505.278 494.64 505.604 494.64H506.734V495.88C506.608 495.927 506.414 495.967 506.154 496C505.901 496.033 505.584 496.05 505.204 496.05ZM514.431 496V481.54H516.201L523.841 492.78V481.54H525.691V496H524.041L516.281 484.6V496H514.431ZM533.132 496.2C532.179 496.2 531.346 495.997 530.632 495.59C529.926 495.177 529.376 494.573 528.982 493.78C528.589 492.987 528.392 492.017 528.392 490.87C528.392 489.79 528.576 488.843 528.942 488.03C529.309 487.217 529.846 486.587 530.552 486.14C531.259 485.687 532.122 485.46 533.142 485.46C534.096 485.46 534.922 485.67 535.622 486.09C536.322 486.503 536.866 487.113 537.252 487.92C537.646 488.727 537.842 489.71 537.842 490.87C537.842 491.923 537.662 492.85 537.302 493.65C536.942 494.45 536.412 495.077 535.712 495.53C535.019 495.977 534.159 496.2 533.132 496.2ZM533.142 494.74C533.756 494.74 534.276 494.583 534.702 494.27C535.129 493.957 535.452 493.507 535.672 492.92C535.899 492.333 536.012 491.637 536.012 490.83C536.012 490.09 535.912 489.427 535.712 488.84C535.519 488.247 535.212 487.777 534.792 487.43C534.372 487.083 533.822 486.91 533.142 486.91C532.516 486.91 531.986 487.067 531.552 487.38C531.119 487.687 530.789 488.133 530.562 488.72C530.342 489.307 530.232 490.01 530.232 490.83C530.232 491.557 530.329 492.217 530.522 492.81C530.722 493.403 531.036 493.873 531.462 494.22C531.896 494.567 532.456 494.74 533.142 494.74ZM542.354 496L539.154 485.66H540.874L543.234 493.61H543.394L545.724 485.66H547.124L549.544 493.59H549.714L551.974 485.66H553.714L550.574 496H548.754L546.404 488.37L544.154 496H542.354Z"
                    fill="#36536B"></path>
            </g>
            <path id="The payment has been"
                d="M187.13 528V515.24H182.46V513.54H193.4V515.24H188.99V528H187.13ZM195.405 528V513.14H197.205V519.18C197.378 518.893 197.612 518.627 197.905 518.38C198.198 518.127 198.555 517.923 198.975 517.77C199.395 517.61 199.882 517.53 200.435 517.53C201.108 517.53 201.718 517.657 202.265 517.91C202.812 518.157 203.245 518.51 203.565 518.97C203.885 519.43 204.045 519.977 204.045 520.61V528H202.195V520.98C202.195 520.36 201.982 519.883 201.555 519.55C201.135 519.21 200.585 519.04 199.905 519.04C199.445 519.04 199.012 519.117 198.605 519.27C198.198 519.417 197.868 519.643 197.615 519.95C197.368 520.25 197.245 520.633 197.245 521.1V528H195.405ZM211.298 528.2C210.338 528.2 209.492 527.99 208.758 527.57C208.025 527.15 207.452 526.547 207.038 525.76C206.625 524.973 206.418 524.03 206.418 522.93C206.418 521.843 206.605 520.89 206.978 520.07C207.352 519.25 207.892 518.61 208.598 518.15C209.312 517.69 210.168 517.46 211.168 517.46C212.142 517.46 212.965 517.67 213.638 518.09C214.312 518.51 214.822 519.103 215.168 519.87C215.522 520.63 215.698 521.533 215.698 522.58V523.26H208.288C208.288 523.913 208.395 524.507 208.608 525.04C208.828 525.567 209.158 525.987 209.598 526.3C210.038 526.613 210.595 526.77 211.268 526.77C211.928 526.77 212.495 526.617 212.968 526.31C213.448 526.003 213.755 525.56 213.888 524.98H215.628C215.508 525.68 215.228 526.27 214.788 526.75C214.355 527.23 213.832 527.593 213.218 527.84C212.612 528.08 211.972 528.2 211.298 528.2ZM208.298 522.01H213.918C213.918 521.417 213.818 520.883 213.618 520.41C213.418 519.93 213.112 519.553 212.698 519.28C212.292 519 211.778 518.86 211.158 518.86C210.512 518.86 209.975 519.017 209.548 519.33C209.122 519.637 208.805 520.033 208.598 520.52C208.392 521 208.292 521.497 208.298 522.01ZM223.003 531.22V517.66H224.843L224.863 519.46C224.983 519.247 225.136 519.023 225.323 518.79C225.516 518.557 225.749 518.34 226.023 518.14C226.303 517.94 226.626 517.777 226.993 517.65C227.366 517.523 227.789 517.46 228.263 517.46C229.089 517.46 229.816 517.65 230.443 518.03C231.076 518.403 231.569 518.977 231.923 519.75C232.276 520.523 232.453 521.503 232.453 522.69C232.453 523.877 232.279 524.88 231.933 525.7C231.593 526.513 231.099 527.133 230.453 527.56C229.806 527.987 229.026 528.2 228.113 528.2C227.653 528.2 227.243 528.133 226.883 528C226.529 527.873 226.219 527.707 225.953 527.5C225.693 527.287 225.473 527.06 225.293 526.82C225.119 526.58 224.976 526.35 224.863 526.13V531.22H223.003ZM227.763 526.76C228.616 526.76 229.313 526.437 229.853 525.79C230.393 525.137 230.663 524.123 230.663 522.75C230.663 521.57 230.416 520.633 229.923 519.94C229.429 519.247 228.709 518.9 227.763 518.9C226.803 518.9 226.076 519.257 225.583 519.97C225.089 520.677 224.843 521.603 224.843 522.75C224.843 523.49 224.953 524.163 225.173 524.77C225.393 525.377 225.719 525.86 226.153 526.22C226.586 526.58 227.123 526.76 227.763 526.76ZM237.7 528.2C237.026 528.2 236.433 528.083 235.92 527.85C235.413 527.61 235.013 527.267 234.72 526.82C234.433 526.373 234.29 525.833 234.29 525.2C234.29 524.053 234.69 523.2 235.49 522.64C236.29 522.08 237.573 521.78 239.34 521.74L241.18 521.69V520.88C241.18 520.247 240.99 519.747 240.61 519.38C240.23 519.007 239.643 518.82 238.85 518.82C238.256 518.827 237.733 518.967 237.28 519.24C236.826 519.513 236.536 519.96 236.41 520.58H234.78C234.82 519.907 235.006 519.34 235.34 518.88C235.68 518.413 236.156 518.06 236.77 517.82C237.383 517.58 238.106 517.46 238.94 517.46C239.84 517.46 240.586 517.587 241.18 517.84C241.78 518.093 242.226 518.467 242.52 518.96C242.82 519.453 242.97 520.06 242.97 520.78V528H241.39L241.25 526.06C240.856 526.867 240.35 527.427 239.73 527.74C239.116 528.047 238.44 528.2 237.7 528.2ZM238.25 526.87C238.603 526.87 238.95 526.807 239.29 526.68C239.636 526.553 239.95 526.383 240.23 526.17C240.516 525.95 240.746 525.707 240.92 525.44C241.093 525.167 241.18 524.887 241.18 524.6V522.83L239.65 522.86C238.856 522.873 238.196 522.953 237.67 523.1C237.143 523.247 236.746 523.477 236.48 523.79C236.213 524.103 236.08 524.513 236.08 525.02C236.08 525.6 236.283 526.053 236.69 526.38C237.096 526.707 237.616 526.87 238.25 526.87ZM246.552 531.3C245.946 531.3 245.529 531.257 245.302 531.17C245.076 531.083 244.962 531.04 244.962 531.04V529.84L246.022 529.86C246.402 529.873 246.719 529.847 246.972 529.78C247.226 529.713 247.429 529.623 247.582 529.51C247.736 529.397 247.852 529.27 247.932 529.13C248.019 528.99 248.089 528.857 248.142 528.73L248.502 527.75L244.462 517.66H246.332L249.382 525.64L252.412 517.66H254.222L249.872 528.78C249.599 529.433 249.296 529.943 248.962 530.31C248.636 530.677 248.269 530.933 247.862 531.08C247.462 531.227 247.026 531.3 246.552 531.3ZM256.225 528V517.66H258.005V519.16C258.292 518.707 258.685 518.31 259.185 517.97C259.685 517.63 260.335 517.46 261.135 517.46C261.509 517.46 261.889 517.523 262.275 517.65C262.669 517.777 263.029 517.967 263.355 518.22C263.682 518.473 263.935 518.783 264.115 519.15C264.435 518.643 264.869 518.237 265.415 517.93C265.962 517.617 266.579 517.46 267.265 517.46C267.625 517.46 268.002 517.517 268.395 517.63C268.789 517.737 269.152 517.93 269.485 518.21C269.825 518.483 270.102 518.867 270.315 519.36C270.529 519.847 270.635 520.473 270.635 521.24V528H268.775V521.42C268.775 520.793 268.675 520.31 268.475 519.97C268.275 519.623 268.012 519.38 267.685 519.24C267.365 519.1 267.022 519.03 266.655 519.03C266.335 519.03 265.995 519.093 265.635 519.22C265.275 519.347 264.969 519.56 264.715 519.86C264.462 520.16 264.335 520.57 264.335 521.09V528H262.495V520.88C262.495 520.473 262.385 520.133 262.165 519.86C261.952 519.587 261.682 519.38 261.355 519.24C261.035 519.1 260.715 519.03 260.395 519.03C260.042 519.03 259.685 519.1 259.325 519.24C258.972 519.38 258.672 519.603 258.425 519.91C258.185 520.21 258.065 520.603 258.065 521.09V528H256.225ZM277.9 528.2C276.94 528.2 276.093 527.99 275.36 527.57C274.627 527.15 274.053 526.547 273.64 525.76C273.227 524.973 273.02 524.03 273.02 522.93C273.02 521.843 273.207 520.89 273.58 520.07C273.953 519.25 274.493 518.61 275.2 518.15C275.913 517.69 276.77 517.46 277.77 517.46C278.743 517.46 279.567 517.67 280.24 518.09C280.913 518.51 281.423 519.103 281.77 519.87C282.123 520.63 282.3 521.533 282.3 522.58V523.26H274.89C274.89 523.913 274.997 524.507 275.21 525.04C275.43 525.567 275.76 525.987 276.2 526.3C276.64 526.613 277.197 526.77 277.87 526.77C278.53 526.77 279.097 526.617 279.57 526.31C280.05 526.003 280.357 525.56 280.49 524.98H282.23C282.11 525.68 281.83 526.27 281.39 526.75C280.957 527.23 280.433 527.593 279.82 527.84C279.213 528.08 278.573 528.2 277.9 528.2ZM274.9 522.01H280.52C280.52 521.417 280.42 520.883 280.22 520.41C280.02 519.93 279.713 519.553 279.3 519.28C278.893 519 278.38 518.86 277.76 518.86C277.113 518.86 276.577 519.017 276.15 519.33C275.723 519.637 275.407 520.033 275.2 520.52C274.993 521 274.893 521.497 274.9 522.01ZM284.858 528V517.66H286.648V519.16C286.815 518.873 287.045 518.603 287.338 518.35C287.638 518.097 287.998 517.893 288.418 517.74C288.845 517.587 289.335 517.51 289.888 517.51C290.541 517.51 291.141 517.64 291.688 517.9C292.241 518.16 292.681 518.567 293.008 519.12C293.341 519.667 293.508 520.373 293.508 521.24V528H291.658V521.42C291.658 520.613 291.445 520.017 291.018 519.63C290.598 519.237 290.051 519.04 289.378 519.04C288.911 519.04 288.475 519.117 288.068 519.27C287.661 519.417 287.331 519.643 287.078 519.95C286.825 520.25 286.698 520.63 286.698 521.09V528H284.858ZM299.761 528.05C299.048 528.05 298.495 527.953 298.101 527.76C297.708 527.567 297.431 527.28 297.271 526.9C297.118 526.52 297.041 526.053 297.041 525.5V519.01H295.361V517.66H297.091L297.541 514.65H298.901V517.65H301.231V519.01H298.901V525.44C298.901 525.807 298.938 526.077 299.011 526.25C299.091 526.417 299.221 526.523 299.401 526.57C299.581 526.617 299.835 526.64 300.161 526.64H301.291V527.88C301.165 527.927 300.971 527.967 300.711 528C300.458 528.033 300.141 528.05 299.761 528.05ZM308.608 528V513.14H310.408V519.18C310.581 518.893 310.815 518.627 311.108 518.38C311.401 518.127 311.758 517.923 312.178 517.77C312.598 517.61 313.085 517.53 313.638 517.53C314.311 517.53 314.921 517.657 315.468 517.91C316.015 518.157 316.448 518.51 316.768 518.97C317.088 519.43 317.248 519.977 317.248 520.61V528H315.398V520.98C315.398 520.36 315.185 519.883 314.758 519.55C314.338 519.21 313.788 519.04 313.108 519.04C312.648 519.04 312.215 519.117 311.808 519.27C311.401 519.417 311.071 519.643 310.818 519.95C310.571 520.25 310.448 520.633 310.448 521.1V528H308.608ZM322.993 528.2C322.319 528.2 321.726 528.083 321.213 527.85C320.706 527.61 320.306 527.267 320.013 526.82C319.726 526.373 319.583 525.833 319.583 525.2C319.583 524.053 319.983 523.2 320.783 522.64C321.583 522.08 322.866 521.78 324.633 521.74L326.473 521.69V520.88C326.473 520.247 326.283 519.747 325.903 519.38C325.523 519.007 324.936 518.82 324.143 518.82C323.549 518.827 323.026 518.967 322.573 519.24C322.119 519.513 321.829 519.96 321.703 520.58H320.073C320.113 519.907 320.299 519.34 320.633 518.88C320.973 518.413 321.449 518.06 322.063 517.82C322.676 517.58 323.399 517.46 324.233 517.46C325.133 517.46 325.879 517.587 326.473 517.84C327.073 518.093 327.519 518.467 327.813 518.96C328.113 519.453 328.263 520.06 328.263 520.78V528H326.683L326.543 526.06C326.149 526.867 325.643 527.427 325.023 527.74C324.409 528.047 323.733 528.2 322.993 528.2ZM323.543 526.87C323.896 526.87 324.243 526.807 324.583 526.68C324.929 526.553 325.243 526.383 325.523 526.17C325.809 525.95 326.039 525.707 326.213 525.44C326.386 525.167 326.473 524.887 326.473 524.6V522.83L324.943 522.86C324.149 522.873 323.489 522.953 322.963 523.1C322.436 523.247 322.039 523.477 321.773 523.79C321.506 524.103 321.373 524.513 321.373 525.02C321.373 525.6 321.576 526.053 321.983 526.38C322.389 526.707 322.909 526.87 323.543 526.87ZM334.77 528.2C334.05 528.2 333.38 528.09 332.76 527.87C332.146 527.643 331.636 527.293 331.23 526.82C330.823 526.34 330.57 525.73 330.47 524.99H332.15C332.236 525.397 332.403 525.737 332.65 526.01C332.896 526.277 333.2 526.48 333.56 526.62C333.926 526.753 334.326 526.82 334.76 526.82C335.46 526.82 336.023 526.69 336.45 526.43C336.876 526.17 337.09 525.77 337.09 525.23C337.09 524.85 336.976 524.547 336.75 524.32C336.53 524.087 336.183 523.917 335.71 523.81L333.57 523.28C332.736 523.08 332.07 522.767 331.57 522.34C331.076 521.913 330.826 521.317 330.82 520.55C330.82 519.943 330.966 519.41 331.26 518.95C331.553 518.49 331.99 518.127 332.57 517.86C333.156 517.593 333.886 517.46 334.76 517.46C335.886 517.46 336.793 517.713 337.48 518.22C338.166 518.72 338.526 519.457 338.56 520.43H336.92C336.853 519.937 336.633 519.547 336.26 519.26C335.886 518.967 335.38 518.82 334.74 518.82C334.086 518.82 333.55 518.953 333.13 519.22C332.716 519.48 332.51 519.887 332.51 520.44C332.51 520.807 332.656 521.097 332.95 521.31C333.25 521.517 333.683 521.69 334.25 521.83L336.33 522.35C336.803 522.477 337.196 522.643 337.51 522.85C337.823 523.057 338.07 523.287 338.25 523.54C338.43 523.793 338.556 524.06 338.63 524.34C338.71 524.613 338.75 524.877 338.75 525.13C338.75 525.763 338.593 526.31 338.28 526.77C337.966 527.223 337.513 527.577 336.92 527.83C336.326 528.077 335.61 528.2 334.77 528.2ZM351.062 528.2C350.455 528.2 349.942 528.12 349.522 527.96C349.109 527.8 348.769 527.597 348.502 527.35C348.235 527.097 348.029 526.84 347.882 526.58C347.735 526.313 347.629 526.08 347.562 525.88L347.362 528H345.952V513.14H347.812V519.3C347.899 519.127 348.029 518.937 348.202 518.73C348.382 518.523 348.612 518.323 348.892 518.13C349.172 517.937 349.502 517.777 349.882 517.65C350.269 517.523 350.709 517.46 351.202 517.46C352.495 517.46 353.522 517.91 354.282 518.81C355.049 519.71 355.432 521.037 355.432 522.79C355.432 523.877 355.269 524.827 354.942 525.64C354.615 526.447 354.129 527.077 353.482 527.53C352.835 527.977 352.029 528.2 351.062 528.2ZM350.732 526.78C351.572 526.78 352.255 526.457 352.782 525.81C353.309 525.157 353.572 524.12 353.572 522.7C353.572 521.493 353.325 520.56 352.832 519.9C352.345 519.233 351.632 518.9 350.692 518.9C350.005 518.9 349.452 519.05 349.032 519.35C348.619 519.643 348.312 520.073 348.112 520.64C347.919 521.207 347.819 521.893 347.812 522.7C347.812 524.147 348.035 525.19 348.482 525.83C348.935 526.463 349.685 526.78 350.732 526.78ZM362.255 528.2C361.295 528.2 360.449 527.99 359.715 527.57C358.982 527.15 358.409 526.547 357.995 525.76C357.582 524.973 357.375 524.03 357.375 522.93C357.375 521.843 357.562 520.89 357.935 520.07C358.309 519.25 358.849 518.61 359.555 518.15C360.269 517.69 361.125 517.46 362.125 517.46C363.099 517.46 363.922 517.67 364.595 518.09C365.269 518.51 365.779 519.103 366.125 519.87C366.479 520.63 366.655 521.533 366.655 522.58V523.26H359.245C359.245 523.913 359.352 524.507 359.565 525.04C359.785 525.567 360.115 525.987 360.555 526.3C360.995 526.613 361.552 526.77 362.225 526.77C362.885 526.77 363.452 526.617 363.925 526.31C364.405 526.003 364.712 525.56 364.845 524.98H366.585C366.465 525.68 366.185 526.27 365.745 526.75C365.312 527.23 364.789 527.593 364.175 527.84C363.569 528.08 362.929 528.2 362.255 528.2ZM359.255 522.01H364.875C364.875 521.417 364.775 520.883 364.575 520.41C364.375 519.93 364.069 519.553 363.655 519.28C363.249 519 362.735 518.86 362.115 518.86C361.469 518.86 360.932 519.017 360.505 519.33C360.079 519.637 359.762 520.033 359.555 520.52C359.349 521 359.249 521.497 359.255 522.01ZM373.584 528.2C372.624 528.2 371.777 527.99 371.044 527.57C370.31 527.15 369.737 526.547 369.324 525.76C368.91 524.973 368.704 524.03 368.704 522.93C368.704 521.843 368.89 520.89 369.264 520.07C369.637 519.25 370.177 518.61 370.884 518.15C371.597 517.69 372.454 517.46 373.454 517.46C374.427 517.46 375.25 517.67 375.924 518.09C376.597 518.51 377.107 519.103 377.454 519.87C377.807 520.63 377.984 521.533 377.984 522.58V523.26H370.574C370.574 523.913 370.68 524.507 370.894 525.04C371.114 525.567 371.444 525.987 371.884 526.3C372.324 526.613 372.88 526.77 373.554 526.77C374.214 526.77 374.78 526.617 375.254 526.31C375.734 526.003 376.04 525.56 376.174 524.98H377.914C377.794 525.68 377.514 526.27 377.074 526.75C376.64 527.23 376.117 527.593 375.504 527.84C374.897 528.08 374.257 528.2 373.584 528.2ZM370.584 522.01H376.204C376.204 521.417 376.104 520.883 375.904 520.41C375.704 519.93 375.397 519.553 374.984 519.28C374.577 519 374.064 518.86 373.444 518.86C372.797 518.86 372.26 519.017 371.834 519.33C371.407 519.637 371.09 520.033 370.884 520.52C370.677 521 370.577 521.497 370.584 522.01ZM380.542 528V517.66H382.332V519.16C382.498 518.873 382.728 518.603 383.022 518.35C383.322 518.097 383.682 517.893 384.102 517.74C384.528 517.587 385.018 517.51 385.572 517.51C386.225 517.51 386.825 517.64 387.372 517.9C387.925 518.16 388.365 518.567 388.692 519.12C389.025 519.667 389.192 520.373 389.192 521.24V528H387.342V521.42C387.342 520.613 387.128 520.017 386.702 519.63C386.282 519.237 385.735 519.04 385.062 519.04C384.595 519.04 384.158 519.117 383.752 519.27C383.345 519.417 383.015 519.643 382.762 519.95C382.508 520.25 382.382 520.63 382.382 521.09V528H380.542ZM396.948 531.22V517.66H398.788L398.808 519.46C398.928 519.247 399.081 519.023 399.268 518.79C399.461 518.557 399.695 518.34 399.968 518.14C400.248 517.94 400.571 517.777 400.938 517.65C401.311 517.523 401.735 517.46 402.208 517.46C403.035 517.46 403.761 517.65 404.388 518.03C405.021 518.403 405.515 518.977 405.868 519.75C406.221 520.523 406.398 521.503 406.398 522.69C406.398 523.877 406.225 524.88 405.878 525.7C405.538 526.513 405.045 527.133 404.398 527.56C403.751 527.987 402.971 528.2 402.058 528.2C401.598 528.2 401.188 528.133 400.828 528C400.475 527.873 400.165 527.707 399.898 527.5C399.638 527.287 399.418 527.06 399.238 526.82C399.065 526.58 398.921 526.35 398.808 526.13V531.22H396.948ZM401.708 526.76C402.561 526.76 403.258 526.437 403.798 525.79C404.338 525.137 404.608 524.123 404.608 522.75C404.608 521.57 404.361 520.633 403.868 519.94C403.375 519.247 402.655 518.9 401.708 518.9C400.748 518.9 400.021 519.257 399.528 519.97C399.035 520.677 398.788 521.603 398.788 522.75C398.788 523.49 398.898 524.163 399.118 524.77C399.338 525.377 399.665 525.86 400.098 526.22C400.531 526.58 401.068 526.76 401.708 526.76ZM408.862 528V517.66H410.622V519.65C410.795 519.157 411.039 518.75 411.352 518.43C411.665 518.103 412.022 517.86 412.422 517.7C412.829 517.54 413.249 517.46 413.682 517.46C413.835 517.46 413.985 517.47 414.132 517.49C414.279 517.51 414.392 517.543 414.472 517.59V519.38C414.372 519.333 414.242 519.303 414.082 519.29C413.929 519.27 413.799 519.26 413.692 519.26C413.279 519.233 412.892 519.26 412.532 519.34C412.172 519.413 411.855 519.543 411.582 519.73C411.309 519.917 411.092 520.163 410.932 520.47C410.779 520.77 410.702 521.137 410.702 521.57V528H408.862ZM420.658 528.2C419.705 528.2 418.872 527.997 418.158 527.59C417.452 527.177 416.902 526.573 416.508 525.78C416.115 524.987 415.918 524.017 415.918 522.87C415.918 521.79 416.102 520.843 416.468 520.03C416.835 519.217 417.372 518.587 418.078 518.14C418.785 517.687 419.648 517.46 420.668 517.46C421.622 517.46 422.448 517.67 423.148 518.09C423.848 518.503 424.392 519.113 424.778 519.92C425.172 520.727 425.368 521.71 425.368 522.87C425.368 523.923 425.188 524.85 424.828 525.65C424.468 526.45 423.938 527.077 423.238 527.53C422.545 527.977 421.685 528.2 420.658 528.2ZM420.668 526.74C421.282 526.74 421.802 526.583 422.228 526.27C422.655 525.957 422.978 525.507 423.198 524.92C423.425 524.333 423.538 523.637 423.538 522.83C423.538 522.09 423.438 521.427 423.238 520.84C423.045 520.247 422.738 519.777 422.318 519.43C421.898 519.083 421.348 518.91 420.668 518.91C420.042 518.91 419.512 519.067 419.078 519.38C418.645 519.687 418.315 520.133 418.088 520.72C417.868 521.307 417.758 522.01 417.758 522.83C417.758 523.557 417.855 524.217 418.048 524.81C418.248 525.403 418.562 525.873 418.988 526.22C419.422 526.567 419.982 526.74 420.668 526.74ZM431.987 528.2C431.054 528.2 430.227 527.997 429.507 527.59C428.794 527.183 428.234 526.583 427.827 525.79C427.427 524.997 427.227 524.023 427.227 522.87C427.227 521.79 427.41 520.847 427.777 520.04C428.15 519.227 428.69 518.593 429.397 518.14C430.11 517.687 430.974 517.46 431.987 517.46C432.727 517.46 433.39 517.603 433.977 517.89C434.57 518.17 435.057 518.57 435.437 519.09C435.817 519.61 436.05 520.223 436.137 520.93H434.497C434.437 520.57 434.297 520.24 434.077 519.94C433.864 519.64 433.58 519.4 433.227 519.22C432.88 519.04 432.47 518.95 431.997 518.95C431.11 518.95 430.387 519.27 429.827 519.91C429.274 520.55 428.997 521.53 428.997 522.85C428.997 524.043 429.25 525 429.757 525.72C430.27 526.433 431.024 526.79 432.017 526.79C432.49 526.79 432.904 526.7 433.257 526.52C433.61 526.333 433.894 526.09 434.107 525.79C434.32 525.483 434.457 525.157 434.517 524.81H436.127C436.04 525.503 435.804 526.103 435.417 526.61C435.037 527.117 434.55 527.51 433.957 527.79C433.37 528.063 432.714 528.2 431.987 528.2ZM443.017 528.2C442.057 528.2 441.211 527.99 440.477 527.57C439.744 527.15 439.171 526.547 438.757 525.76C438.344 524.973 438.137 524.03 438.137 522.93C438.137 521.843 438.324 520.89 438.697 520.07C439.071 519.25 439.611 518.61 440.317 518.15C441.031 517.69 441.887 517.46 442.887 517.46C443.861 517.46 444.684 517.67 445.357 518.09C446.031 518.51 446.541 519.103 446.887 519.87C447.241 520.63 447.417 521.533 447.417 522.58V523.26H440.007C440.007 523.913 440.114 524.507 440.327 525.04C440.547 525.567 440.877 525.987 441.317 526.3C441.757 526.613 442.314 526.77 442.987 526.77C443.647 526.77 444.214 526.617 444.687 526.31C445.167 526.003 445.474 525.56 445.607 524.98H447.347C447.227 525.68 446.947 526.27 446.507 526.75C446.074 527.23 445.551 527.593 444.937 527.84C444.331 528.08 443.691 528.2 443.017 528.2ZM440.017 522.01H445.637C445.637 521.417 445.537 520.883 445.337 520.41C445.137 519.93 444.831 519.553 444.417 519.28C444.011 519 443.497 518.86 442.877 518.86C442.231 518.86 441.694 519.017 441.267 519.33C440.841 519.637 440.524 520.033 440.317 520.52C440.111 521 440.011 521.497 440.017 522.01ZM453.637 528.2C452.917 528.2 452.247 528.09 451.627 527.87C451.013 527.643 450.503 527.293 450.097 526.82C449.69 526.34 449.437 525.73 449.337 524.99H451.017C451.103 525.397 451.27 525.737 451.517 526.01C451.763 526.277 452.067 526.48 452.427 526.62C452.793 526.753 453.193 526.82 453.627 526.82C454.327 526.82 454.89 526.69 455.317 526.43C455.743 526.17 455.957 525.77 455.957 525.23C455.957 524.85 455.843 524.547 455.617 524.32C455.397 524.087 455.05 523.917 454.577 523.81L452.437 523.28C451.603 523.08 450.937 522.767 450.437 522.34C449.943 521.913 449.693 521.317 449.687 520.55C449.687 519.943 449.833 519.41 450.127 518.95C450.42 518.49 450.857 518.127 451.437 517.86C452.023 517.593 452.753 517.46 453.627 517.46C454.753 517.46 455.66 517.713 456.347 518.22C457.033 518.72 457.393 519.457 457.427 520.43H455.787C455.72 519.937 455.5 519.547 455.127 519.26C454.753 518.967 454.247 518.82 453.607 518.82C452.953 518.82 452.417 518.953 451.997 519.22C451.583 519.48 451.377 519.887 451.377 520.44C451.377 520.807 451.523 521.097 451.817 521.31C452.117 521.517 452.55 521.69 453.117 521.83L455.197 522.35C455.67 522.477 456.063 522.643 456.377 522.85C456.69 523.057 456.937 523.287 457.117 523.54C457.297 523.793 457.423 524.06 457.497 524.34C457.577 524.613 457.617 524.877 457.617 525.13C457.617 525.763 457.46 526.31 457.147 526.77C456.833 527.223 456.38 527.577 455.787 527.83C455.193 528.077 454.477 528.2 453.637 528.2ZM463.715 528.2C462.995 528.2 462.325 528.09 461.705 527.87C461.092 527.643 460.582 527.293 460.175 526.82C459.768 526.34 459.515 525.73 459.415 524.99H461.095C461.182 525.397 461.348 525.737 461.595 526.01C461.842 526.277 462.145 526.48 462.505 526.62C462.872 526.753 463.272 526.82 463.705 526.82C464.405 526.82 464.968 526.69 465.395 526.43C465.822 526.17 466.035 525.77 466.035 525.23C466.035 524.85 465.922 524.547 465.695 524.32C465.475 524.087 465.128 523.917 464.655 523.81L462.515 523.28C461.682 523.08 461.015 522.767 460.515 522.34C460.022 521.913 459.772 521.317 459.765 520.55C459.765 519.943 459.912 519.41 460.205 518.95C460.498 518.49 460.935 518.127 461.515 517.86C462.102 517.593 462.832 517.46 463.705 517.46C464.832 517.46 465.738 517.713 466.425 518.22C467.112 518.72 467.472 519.457 467.505 520.43H465.865C465.798 519.937 465.578 519.547 465.205 519.26C464.832 518.967 464.325 518.82 463.685 518.82C463.032 518.82 462.495 518.953 462.075 519.22C461.662 519.48 461.455 519.887 461.455 520.44C461.455 520.807 461.602 521.097 461.895 521.31C462.195 521.517 462.628 521.69 463.195 521.83L465.275 522.35C465.748 522.477 466.142 522.643 466.455 522.85C466.768 523.057 467.015 523.287 467.195 523.54C467.375 523.793 467.502 524.06 467.575 524.34C467.655 524.613 467.695 524.877 467.695 525.13C467.695 525.763 467.538 526.31 467.225 526.77C466.912 527.223 466.458 527.577 465.865 527.83C465.272 528.077 464.555 528.2 463.715 528.2ZM474.482 528.2C473.522 528.2 472.675 527.99 471.942 527.57C471.209 527.15 470.635 526.547 470.222 525.76C469.809 524.973 469.602 524.03 469.602 522.93C469.602 521.843 469.789 520.89 470.162 520.07C470.535 519.25 471.075 518.61 471.782 518.15C472.495 517.69 473.352 517.46 474.352 517.46C475.325 517.46 476.149 517.67 476.822 518.09C477.495 518.51 478.005 519.103 478.352 519.87C478.705 520.63 478.882 521.533 478.882 522.58V523.26H471.472C471.472 523.913 471.579 524.507 471.792 525.04C472.012 525.567 472.342 525.987 472.782 526.3C473.222 526.613 473.779 526.77 474.452 526.77C475.112 526.77 475.679 526.617 476.152 526.31C476.632 526.003 476.939 525.56 477.072 524.98H478.812C478.692 525.68 478.412 526.27 477.972 526.75C477.539 527.23 477.015 527.593 476.402 527.84C475.795 528.08 475.155 528.2 474.482 528.2ZM471.482 522.01H477.102C477.102 521.417 477.002 520.883 476.802 520.41C476.602 519.93 476.295 519.553 475.882 519.28C475.475 519 474.962 518.86 474.342 518.86C473.695 518.86 473.159 519.017 472.732 519.33C472.305 519.637 471.989 520.033 471.782 520.52C471.575 521 471.475 521.497 471.482 522.01ZM485.21 528.2C483.863 528.2 482.797 527.74 482.01 526.82C481.23 525.9 480.84 524.557 480.84 522.79C480.84 521.717 480.997 520.78 481.31 519.98C481.623 519.18 482.093 518.56 482.72 518.12C483.347 517.68 484.127 517.46 485.06 517.46C485.56 517.46 486 517.523 486.38 517.65C486.76 517.777 487.09 517.937 487.37 518.13C487.65 518.323 487.877 518.523 488.05 518.73C488.23 518.937 488.363 519.127 488.45 519.3V513.14H490.32V528H488.9L488.7 525.88C488.633 526.08 488.527 526.313 488.38 526.58C488.233 526.84 488.027 527.097 487.76 527.35C487.5 527.597 487.16 527.8 486.74 527.96C486.32 528.12 485.81 528.2 485.21 528.2ZM485.54 526.78C486.58 526.78 487.323 526.463 487.77 525.83C488.223 525.19 488.45 524.147 488.45 522.7C488.443 521.893 488.343 521.207 488.15 520.64C487.957 520.073 487.65 519.643 487.23 519.35C486.817 519.05 486.263 518.9 485.57 518.9C484.723 518.9 484.033 519.203 483.5 519.81C482.967 520.417 482.7 521.38 482.7 522.7C482.7 523.993 482.94 524.997 483.42 525.71C483.9 526.423 484.607 526.78 485.54 526.78ZM492.944 528V525.64H495.144V528H492.944ZM506.212 528V515.24H501.542V513.54H512.482V515.24H508.072V528H506.212ZM514.487 528V513.14H516.287V519.18C516.46 518.893 516.694 518.627 516.987 518.38C517.28 518.127 517.637 517.923 518.057 517.77C518.477 517.61 518.964 517.53 519.517 517.53C520.19 517.53 520.8 517.657 521.347 517.91C521.894 518.157 522.327 518.51 522.647 518.97C522.967 519.43 523.127 519.977 523.127 520.61V528H521.277V520.98C521.277 520.36 521.064 519.883 520.637 519.55C520.217 519.21 519.667 519.04 518.987 519.04C518.527 519.04 518.094 519.117 517.687 519.27C517.28 519.417 516.95 519.643 516.697 519.95C516.45 520.25 516.327 520.633 516.327 521.1V528H514.487ZM530.38 528.2C529.42 528.2 528.574 527.99 527.84 527.57C527.107 527.15 526.534 526.547 526.12 525.76C525.707 524.973 525.5 524.03 525.5 522.93C525.5 521.843 525.687 520.89 526.06 520.07C526.434 519.25 526.974 518.61 527.68 518.15C528.394 517.69 529.25 517.46 530.25 517.46C531.224 517.46 532.047 517.67 532.72 518.09C533.394 518.51 533.904 519.103 534.25 519.87C534.604 520.63 534.78 521.533 534.78 522.58V523.26H527.37C527.37 523.913 527.477 524.507 527.69 525.04C527.91 525.567 528.24 525.987 528.68 526.3C529.12 526.613 529.677 526.77 530.35 526.77C531.01 526.77 531.577 526.617 532.05 526.31C532.53 526.003 532.837 525.56 532.97 524.98H534.71C534.59 525.68 534.31 526.27 533.87 526.75C533.437 527.23 532.914 527.593 532.3 527.84C531.694 528.08 531.054 528.2 530.38 528.2ZM527.38 522.01H533C533 521.417 532.9 520.883 532.7 520.41C532.5 519.93 532.194 519.553 531.78 519.28C531.374 519 530.86 518.86 530.24 518.86C529.594 518.86 529.057 519.017 528.63 519.33C528.204 519.637 527.887 520.033 527.68 520.52C527.474 521 527.374 521.497 527.38 522.01ZM187.32 556.05C186.607 556.05 186.053 555.953 185.66 555.76C185.267 555.567 184.99 555.28 184.83 554.9C184.677 554.52 184.6 554.053 184.6 553.5V547.01H182.92V545.66H184.65L185.1 542.65H186.46V545.65H188.79V547.01H186.46V553.44C186.46 553.807 186.497 554.077 186.57 554.25C186.65 554.417 186.78 554.523 186.96 554.57C187.14 554.617 187.393 554.64 187.72 554.64H188.85V555.88C188.723 555.927 188.53 555.967 188.27 556C188.017 556.033 187.7 556.05 187.32 556.05ZM195.17 556.2C194.217 556.2 193.383 555.997 192.67 555.59C191.963 555.177 191.413 554.573 191.02 553.78C190.627 552.987 190.43 552.017 190.43 550.87C190.43 549.79 190.613 548.843 190.98 548.03C191.347 547.217 191.883 546.587 192.59 546.14C193.297 545.687 194.16 545.46 195.18 545.46C196.133 545.46 196.96 545.67 197.66 546.09C198.36 546.503 198.903 547.113 199.29 547.92C199.683 548.727 199.88 549.71 199.88 550.87C199.88 551.923 199.7 552.85 199.34 553.65C198.98 554.45 198.45 555.077 197.75 555.53C197.057 555.977 196.197 556.2 195.17 556.2ZM195.18 554.74C195.793 554.74 196.313 554.583 196.74 554.27C197.167 553.957 197.49 553.507 197.71 552.92C197.937 552.333 198.05 551.637 198.05 550.83C198.05 550.09 197.95 549.427 197.75 548.84C197.557 548.247 197.25 547.777 196.83 547.43C196.41 547.083 195.86 546.91 195.18 546.91C194.553 546.91 194.023 547.067 193.59 547.38C193.157 547.687 192.827 548.133 192.6 548.72C192.38 549.307 192.27 550.01 192.27 550.83C192.27 551.557 192.367 552.217 192.56 552.81C192.76 553.403 193.073 553.873 193.5 554.22C193.933 554.567 194.493 554.74 195.18 554.74ZM205.66 556.05C204.947 556.05 204.393 555.953 204 555.76C203.607 555.567 203.33 555.28 203.17 554.9C203.017 554.52 202.94 554.053 202.94 553.5V547.01H201.26V545.66H202.99L203.44 542.65H204.8V545.65H207.13V547.01H204.8V553.44C204.8 553.807 204.837 554.077 204.91 554.25C204.99 554.417 205.12 554.523 205.3 554.57C205.48 554.617 205.733 554.64 206.06 554.64H207.19V555.88C207.063 555.927 206.87 555.967 206.61 556C206.357 556.033 206.04 556.05 205.66 556.05ZM212.485 556.2C211.811 556.2 211.218 556.083 210.705 555.85C210.198 555.61 209.798 555.267 209.505 554.82C209.218 554.373 209.075 553.833 209.075 553.2C209.075 552.053 209.475 551.2 210.275 550.64C211.075 550.08 212.358 549.78 214.125 549.74L215.965 549.69V548.88C215.965 548.247 215.775 547.747 215.395 547.38C215.015 547.007 214.428 546.82 213.635 546.82C213.041 546.827 212.518 546.967 212.065 547.24C211.611 547.513 211.321 547.96 211.195 548.58H209.565C209.605 547.907 209.791 547.34 210.125 546.88C210.465 546.413 210.941 546.06 211.555 545.82C212.168 545.58 212.891 545.46 213.725 545.46C214.625 545.46 215.371 545.587 215.965 545.84C216.565 546.093 217.011 546.467 217.305 546.96C217.605 547.453 217.755 548.06 217.755 548.78V556H216.175L216.035 554.06C215.641 554.867 215.135 555.427 214.515 555.74C213.901 556.047 213.225 556.2 212.485 556.2ZM213.035 554.87C213.388 554.87 213.735 554.807 214.075 554.68C214.421 554.553 214.735 554.383 215.015 554.17C215.301 553.95 215.531 553.707 215.705 553.44C215.878 553.167 215.965 552.887 215.965 552.6V550.83L214.435 550.86C213.641 550.873 212.981 550.953 212.455 551.1C211.928 551.247 211.531 551.477 211.265 551.79C210.998 552.103 210.865 552.513 210.865 553.02C210.865 553.6 211.068 554.053 211.475 554.38C211.881 554.707 212.401 554.87 213.035 554.87ZM223.249 556.13C222.689 556.13 222.236 556.053 221.889 555.9C221.549 555.747 221.286 555.54 221.099 555.28C220.919 555.02 220.796 554.723 220.729 554.39C220.669 554.05 220.639 553.7 220.639 553.34V541.14H222.459V553.16C222.459 553.68 222.559 554.07 222.759 554.33C222.966 554.59 223.253 554.733 223.619 554.76L224.179 554.77V555.97C224.026 556.017 223.866 556.053 223.699 556.08C223.533 556.113 223.383 556.13 223.249 556.13ZM234.457 556.2C233.784 556.2 233.191 556.083 232.677 555.85C232.171 555.61 231.771 555.267 231.477 554.82C231.191 554.373 231.047 553.833 231.047 553.2C231.047 552.053 231.447 551.2 232.247 550.64C233.047 550.08 234.331 549.78 236.097 549.74L237.937 549.69V548.88C237.937 548.247 237.747 547.747 237.367 547.38C236.987 547.007 236.401 546.82 235.607 546.82C235.014 546.827 234.491 546.967 234.037 547.24C233.584 547.513 233.294 547.96 233.167 548.58H231.537C231.577 547.907 231.764 547.34 232.097 546.88C232.437 546.413 232.914 546.06 233.527 545.82C234.141 545.58 234.864 545.46 235.697 545.46C236.597 545.46 237.344 545.587 237.937 545.84C238.537 546.093 238.984 546.467 239.277 546.96C239.577 547.453 239.727 548.06 239.727 548.78V556H238.147L238.007 554.06C237.614 554.867 237.107 555.427 236.487 555.74C235.874 556.047 235.197 556.2 234.457 556.2ZM235.007 554.87C235.361 554.87 235.707 554.807 236.047 554.68C236.394 554.553 236.707 554.383 236.987 554.17C237.274 553.95 237.504 553.707 237.677 553.44C237.851 553.167 237.937 552.887 237.937 552.6V550.83L236.407 550.86C235.614 550.873 234.954 550.953 234.427 551.1C233.901 551.247 233.504 551.477 233.237 551.79C232.971 552.103 232.837 552.513 232.837 553.02C232.837 553.6 233.041 554.053 233.447 554.38C233.854 554.707 234.374 554.87 235.007 554.87ZM242.612 556V545.66H244.392V547.16C244.679 546.707 245.072 546.31 245.572 545.97C246.072 545.63 246.722 545.46 247.522 545.46C247.895 545.46 248.275 545.523 248.662 545.65C249.055 545.777 249.415 545.967 249.742 546.22C250.069 546.473 250.322 546.783 250.502 547.15C250.822 546.643 251.255 546.237 251.802 545.93C252.349 545.617 252.965 545.46 253.652 545.46C254.012 545.46 254.389 545.517 254.782 545.63C255.175 545.737 255.539 545.93 255.872 546.21C256.212 546.483 256.489 546.867 256.702 547.36C256.915 547.847 257.022 548.473 257.022 549.24V556H255.162V549.42C255.162 548.793 255.062 548.31 254.862 547.97C254.662 547.623 254.399 547.38 254.072 547.24C253.752 547.1 253.409 547.03 253.042 547.03C252.722 547.03 252.382 547.093 252.022 547.22C251.662 547.347 251.355 547.56 251.102 547.86C250.849 548.16 250.722 548.57 250.722 549.09V556H248.882V548.88C248.882 548.473 248.772 548.133 248.552 547.86C248.339 547.587 248.069 547.38 247.742 547.24C247.422 547.1 247.102 547.03 246.782 547.03C246.429 547.03 246.072 547.1 245.712 547.24C245.359 547.38 245.059 547.603 244.812 547.91C244.572 548.21 244.452 548.603 244.452 549.09V556H242.612ZM264.057 556.2C263.103 556.2 262.27 555.997 261.557 555.59C260.85 555.177 260.3 554.573 259.907 553.78C259.513 552.987 259.317 552.017 259.317 550.87C259.317 549.79 259.5 548.843 259.867 548.03C260.233 547.217 260.77 546.587 261.477 546.14C262.183 545.687 263.047 545.46 264.067 545.46C265.02 545.46 265.847 545.67 266.547 546.09C267.247 546.503 267.79 547.113 268.177 547.92C268.57 548.727 268.767 549.71 268.767 550.87C268.767 551.923 268.587 552.85 268.227 553.65C267.867 554.45 267.337 555.077 266.637 555.53C265.943 555.977 265.083 556.2 264.057 556.2ZM264.067 554.74C264.68 554.74 265.2 554.583 265.627 554.27C266.053 553.957 266.377 553.507 266.597 552.92C266.823 552.333 266.937 551.637 266.937 550.83C266.937 550.09 266.837 549.427 266.637 548.84C266.443 548.247 266.137 547.777 265.717 547.43C265.297 547.083 264.747 546.91 264.067 546.91C263.44 546.91 262.91 547.067 262.477 547.38C262.043 547.687 261.713 548.133 261.487 548.72C261.267 549.307 261.157 550.01 261.157 550.83C261.157 551.557 261.253 552.217 261.447 552.81C261.647 553.403 261.96 553.873 262.387 554.22C262.82 554.567 263.38 554.74 264.067 554.74ZM274.986 556.2C274.446 556.193 273.936 556.117 273.456 555.97C272.983 555.817 272.563 555.593 272.196 555.3C271.83 555.007 271.54 554.643 271.326 554.21C271.12 553.77 271.016 553.26 271.016 552.68V545.66H272.866V552.49C272.866 553.163 273.073 553.71 273.486 554.13C273.906 554.55 274.536 554.76 275.376 554.76C276.136 554.76 276.746 554.563 277.206 554.17C277.673 553.77 277.906 553.177 277.906 552.39V545.66H279.746V556H278.276L278.086 554.02C277.96 554.54 277.743 554.96 277.436 555.28C277.136 555.6 276.773 555.837 276.346 555.99C275.926 556.137 275.473 556.207 274.986 556.2ZM282.905 556V545.66H284.695V547.16C284.862 546.873 285.092 546.603 285.385 546.35C285.685 546.097 286.045 545.893 286.465 545.74C286.892 545.587 287.382 545.51 287.935 545.51C288.588 545.51 289.188 545.64 289.735 545.9C290.288 546.16 290.728 546.567 291.055 547.12C291.388 547.667 291.555 548.373 291.555 549.24V556H289.705V549.42C289.705 548.613 289.492 548.017 289.065 547.63C288.645 547.237 288.098 547.04 287.425 547.04C286.958 547.04 286.522 547.117 286.115 547.27C285.708 547.417 285.378 547.643 285.125 547.95C284.872 548.25 284.745 548.63 284.745 549.09V556H282.905ZM297.808 556.05C297.095 556.05 296.542 555.953 296.148 555.76C295.755 555.567 295.478 555.28 295.318 554.9C295.165 554.52 295.088 554.053 295.088 553.5V547.01H293.408V545.66H295.138L295.588 542.65H296.948V545.65H299.278V547.01H296.948V553.44C296.948 553.807 296.985 554.077 297.058 554.25C297.138 554.417 297.268 554.523 297.448 554.57C297.628 554.617 297.882 554.64 298.208 554.64H299.338V555.88C299.212 555.927 299.018 555.967 298.758 556C298.505 556.033 298.188 556.05 297.808 556.05ZM310.171 556.2C308.824 556.2 307.758 555.74 306.971 554.82C306.191 553.9 305.801 552.557 305.801 550.79C305.801 549.717 305.958 548.78 306.271 547.98C306.584 547.18 307.054 546.56 307.681 546.12C308.308 545.68 309.088 545.46 310.021 545.46C310.521 545.46 310.961 545.523 311.341 545.65C311.721 545.777 312.051 545.937 312.331 546.13C312.611 546.323 312.838 546.523 313.011 546.73C313.191 546.937 313.324 547.127 313.411 547.3V541.14H315.281V556H313.861L313.661 553.88C313.594 554.08 313.488 554.313 313.341 554.58C313.194 554.84 312.988 555.097 312.721 555.35C312.461 555.597 312.121 555.8 311.701 555.96C311.281 556.12 310.771 556.2 310.171 556.2ZM310.501 554.78C311.541 554.78 312.284 554.463 312.731 553.83C313.184 553.19 313.411 552.147 313.411 550.7C313.404 549.893 313.304 549.207 313.111 548.64C312.918 548.073 312.611 547.643 312.191 547.35C311.778 547.05 311.224 546.9 310.531 546.9C309.684 546.9 308.994 547.203 308.461 547.81C307.928 548.417 307.661 549.38 307.661 550.7C307.661 551.993 307.901 552.997 308.381 553.71C308.861 554.423 309.568 554.78 310.501 554.78ZM322.705 556.2C321.745 556.2 320.898 555.99 320.165 555.57C319.431 555.15 318.858 554.547 318.445 553.76C318.031 552.973 317.825 552.03 317.825 550.93C317.825 549.843 318.011 548.89 318.385 548.07C318.758 547.25 319.298 546.61 320.005 546.15C320.718 545.69 321.575 545.46 322.575 545.46C323.548 545.46 324.371 545.67 325.045 546.09C325.718 546.51 326.228 547.103 326.575 547.87C326.928 548.63 327.105 549.533 327.105 550.58V551.26H319.695C319.695 551.913 319.801 552.507 320.015 553.04C320.235 553.567 320.565 553.987 321.005 554.3C321.445 554.613 322.001 554.77 322.675 554.77C323.335 554.77 323.901 554.617 324.375 554.31C324.855 554.003 325.161 553.56 325.295 552.98H327.035C326.915 553.68 326.635 554.27 326.195 554.75C325.761 555.23 325.238 555.593 324.625 555.84C324.018 556.08 323.378 556.2 322.705 556.2ZM319.705 550.01H325.325C325.325 549.417 325.225 548.883 325.025 548.41C324.825 547.93 324.518 547.553 324.105 547.28C323.698 547 323.185 546.86 322.565 546.86C321.918 546.86 321.381 547.017 320.955 547.33C320.528 547.637 320.211 548.033 320.005 548.52C319.798 549 319.698 549.497 319.705 550.01ZM333.433 556.2C332.086 556.2 331.019 555.74 330.233 554.82C329.453 553.9 329.063 552.557 329.063 550.79C329.063 549.717 329.219 548.78 329.533 547.98C329.846 547.18 330.316 546.56 330.943 546.12C331.569 545.68 332.349 545.46 333.283 545.46C333.783 545.46 334.223 545.523 334.603 545.65C334.983 545.777 335.313 545.937 335.593 546.13C335.873 546.323 336.099 546.523 336.273 546.73C336.453 546.937 336.586 547.127 336.673 547.3V541.14H338.543V556H337.123L336.923 553.88C336.856 554.08 336.749 554.313 336.603 554.58C336.456 554.84 336.249 555.097 335.983 555.35C335.723 555.597 335.383 555.8 334.963 555.96C334.543 556.12 334.033 556.2 333.433 556.2ZM333.763 554.78C334.803 554.78 335.546 554.463 335.993 553.83C336.446 553.19 336.673 552.147 336.673 550.7C336.666 549.893 336.566 549.207 336.373 548.64C336.179 548.073 335.873 547.643 335.453 547.35C335.039 547.05 334.486 546.9 333.793 546.9C332.946 546.9 332.256 547.203 331.723 547.81C331.189 548.417 330.923 549.38 330.923 550.7C330.923 551.993 331.163 552.997 331.643 553.71C332.123 554.423 332.829 554.78 333.763 554.78ZM345.396 556.2C344.856 556.193 344.346 556.117 343.866 555.97C343.393 555.817 342.973 555.593 342.606 555.3C342.24 555.007 341.95 554.643 341.736 554.21C341.53 553.77 341.426 553.26 341.426 552.68V545.66H343.276V552.49C343.276 553.163 343.483 553.71 343.896 554.13C344.316 554.55 344.946 554.76 345.786 554.76C346.546 554.76 347.156 554.563 347.616 554.17C348.083 553.77 348.316 553.177 348.316 552.39V545.66H350.156V556H348.686L348.496 554.02C348.37 554.54 348.153 554.96 347.846 555.28C347.546 555.6 347.183 555.837 346.756 555.99C346.336 556.137 345.883 556.207 345.396 556.2ZM357.358 556.2C356.425 556.2 355.598 555.997 354.878 555.59C354.165 555.183 353.605 554.583 353.198 553.79C352.798 552.997 352.598 552.023 352.598 550.87C352.598 549.79 352.781 548.847 353.148 548.04C353.521 547.227 354.061 546.593 354.768 546.14C355.481 545.687 356.345 545.46 357.358 545.46C358.098 545.46 358.761 545.603 359.348 545.89C359.941 546.17 360.428 546.57 360.808 547.09C361.188 547.61 361.421 548.223 361.508 548.93H359.868C359.808 548.57 359.668 548.24 359.448 547.94C359.235 547.64 358.951 547.4 358.598 547.22C358.251 547.04 357.841 546.95 357.368 546.95C356.481 546.95 355.758 547.27 355.198 547.91C354.645 548.55 354.368 549.53 354.368 550.85C354.368 552.043 354.621 553 355.128 553.72C355.641 554.433 356.395 554.79 357.388 554.79C357.861 554.79 358.275 554.7 358.628 554.52C358.981 554.333 359.265 554.09 359.478 553.79C359.691 553.483 359.828 553.157 359.888 552.81H361.498C361.411 553.503 361.175 554.103 360.788 554.61C360.408 555.117 359.921 555.51 359.328 555.79C358.741 556.063 358.085 556.2 357.358 556.2ZM367.398 556.05C366.685 556.05 366.131 555.953 365.738 555.76C365.345 555.567 365.068 555.28 364.908 554.9C364.755 554.52 364.678 554.053 364.678 553.5V547.01H362.998V545.66H364.728L365.178 542.65H366.538V545.65H368.868V547.01H366.538V553.44C366.538 553.807 366.575 554.077 366.648 554.25C366.728 554.417 366.858 554.523 367.038 554.57C367.218 554.617 367.471 554.64 367.798 554.64H368.928V555.88C368.801 555.927 368.608 555.967 368.348 556C368.095 556.033 367.778 556.05 367.398 556.05ZM375.478 556.2C374.518 556.2 373.671 555.99 372.938 555.57C372.205 555.15 371.631 554.547 371.218 553.76C370.805 552.973 370.598 552.03 370.598 550.93C370.598 549.843 370.785 548.89 371.158 548.07C371.531 547.25 372.071 546.61 372.778 546.15C373.491 545.69 374.348 545.46 375.348 545.46C376.321 545.46 377.145 545.67 377.818 546.09C378.491 546.51 379.001 547.103 379.348 547.87C379.701 548.63 379.878 549.533 379.878 550.58V551.26H372.468C372.468 551.913 372.575 552.507 372.788 553.04C373.008 553.567 373.338 553.987 373.778 554.3C374.218 554.613 374.775 554.77 375.448 554.77C376.108 554.77 376.675 554.617 377.148 554.31C377.628 554.003 377.935 553.56 378.068 552.98H379.808C379.688 553.68 379.408 554.27 378.968 554.75C378.535 555.23 378.011 555.593 377.398 555.84C376.791 556.08 376.151 556.2 375.478 556.2ZM372.478 550.01H378.098C378.098 549.417 377.998 548.883 377.798 548.41C377.598 547.93 377.291 547.553 376.878 547.28C376.471 547 375.958 546.86 375.338 546.86C374.691 546.86 374.155 547.017 373.728 547.33C373.301 547.637 372.985 548.033 372.778 548.52C372.571 549 372.471 549.497 372.478 550.01ZM386.206 556.2C384.86 556.2 383.793 555.74 383.006 554.82C382.226 553.9 381.836 552.557 381.836 550.79C381.836 549.717 381.993 548.78 382.306 547.98C382.62 547.18 383.09 546.56 383.716 546.12C384.343 545.68 385.123 545.46 386.056 545.46C386.556 545.46 386.996 545.523 387.376 545.65C387.756 545.777 388.086 545.937 388.366 546.13C388.646 546.323 388.873 546.523 389.046 546.73C389.226 546.937 389.36 547.127 389.446 547.3V541.14H391.316V556H389.896L389.696 553.88C389.63 554.08 389.523 554.313 389.376 554.58C389.23 554.84 389.023 555.097 388.756 555.35C388.496 555.597 388.156 555.8 387.736 555.96C387.316 556.12 386.806 556.2 386.206 556.2ZM386.536 554.78C387.576 554.78 388.32 554.463 388.766 553.83C389.22 553.19 389.446 552.147 389.446 550.7C389.44 549.893 389.34 549.207 389.146 548.64C388.953 548.073 388.646 547.643 388.226 547.35C387.813 547.05 387.26 546.9 386.566 546.9C385.72 546.9 385.03 547.203 384.496 547.81C383.963 548.417 383.696 549.38 383.696 550.7C383.696 551.993 383.936 552.997 384.416 553.71C384.896 554.423 385.603 554.78 386.536 554.78ZM400.613 556V547.01H398.423V545.66H400.613V544.06C400.613 543.24 400.82 542.617 401.233 542.19C401.653 541.757 402.28 541.54 403.113 541.54H405.063L405.073 542.85H403.533C403.106 542.85 402.816 542.963 402.663 543.19C402.51 543.417 402.433 543.76 402.433 544.22V545.66H404.973V547.01H402.463V556H400.613ZM407.143 556V545.66H408.903V547.65C409.077 547.157 409.32 546.75 409.633 546.43C409.947 546.103 410.303 545.86 410.703 545.7C411.11 545.54 411.53 545.46 411.963 545.46C412.117 545.46 412.267 545.47 412.413 545.49C412.56 545.51 412.673 545.543 412.753 545.59V547.38C412.653 547.333 412.523 547.303 412.363 547.29C412.21 547.27 412.08 547.26 411.973 547.26C411.56 547.233 411.173 547.26 410.813 547.34C410.453 547.413 410.137 547.543 409.863 547.73C409.59 547.917 409.373 548.163 409.213 548.47C409.06 548.77 408.983 549.137 408.983 549.57V556H407.143ZM418.94 556.2C417.986 556.2 417.153 555.997 416.44 555.59C415.733 555.177 415.183 554.573 414.79 553.78C414.396 552.987 414.2 552.017 414.2 550.87C414.2 549.79 414.383 548.843 414.75 548.03C415.116 547.217 415.653 546.587 416.36 546.14C417.066 545.687 417.93 545.46 418.95 545.46C419.903 545.46 420.73 545.67 421.43 546.09C422.13 546.503 422.673 547.113 423.06 547.92C423.453 548.727 423.65 549.71 423.65 550.87C423.65 551.923 423.47 552.85 423.11 553.65C422.75 554.45 422.22 555.077 421.52 555.53C420.826 555.977 419.966 556.2 418.94 556.2ZM418.95 554.74C419.563 554.74 420.083 554.583 420.51 554.27C420.936 553.957 421.26 553.507 421.48 552.92C421.706 552.333 421.82 551.637 421.82 550.83C421.82 550.09 421.72 549.427 421.52 548.84C421.326 548.247 421.02 547.777 420.6 547.43C420.18 547.083 419.63 546.91 418.95 546.91C418.323 546.91 417.793 547.067 417.36 547.38C416.926 547.687 416.596 548.133 416.37 548.72C416.15 549.307 416.04 550.01 416.04 550.83C416.04 551.557 416.136 552.217 416.33 552.81C416.53 553.403 416.843 553.873 417.27 554.22C417.703 554.567 418.263 554.74 418.95 554.74ZM426.108 556V545.66H427.888V547.16C428.175 546.707 428.568 546.31 429.068 545.97C429.568 545.63 430.218 545.46 431.018 545.46C431.391 545.46 431.771 545.523 432.158 545.65C432.551 545.777 432.911 545.967 433.238 546.22C433.565 546.473 433.818 546.783 433.998 547.15C434.318 546.643 434.751 546.237 435.298 545.93C435.845 545.617 436.461 545.46 437.148 545.46C437.508 545.46 437.885 545.517 438.278 545.63C438.671 545.737 439.035 545.93 439.368 546.21C439.708 546.483 439.985 546.867 440.198 547.36C440.411 547.847 440.518 548.473 440.518 549.24V556H438.658V549.42C438.658 548.793 438.558 548.31 438.358 547.97C438.158 547.623 437.895 547.38 437.568 547.24C437.248 547.1 436.905 547.03 436.538 547.03C436.218 547.03 435.878 547.093 435.518 547.22C435.158 547.347 434.851 547.56 434.598 547.86C434.345 548.16 434.218 548.57 434.218 549.09V556H432.378V548.88C432.378 548.473 432.268 548.133 432.048 547.86C431.835 547.587 431.565 547.38 431.238 547.24C430.918 547.1 430.598 547.03 430.278 547.03C429.925 547.03 429.568 547.1 429.208 547.24C428.855 547.38 428.555 547.603 428.308 547.91C428.068 548.21 427.948 548.603 427.948 549.09V556H426.108ZM449.189 559.3C448.582 559.3 448.166 559.257 447.939 559.17C447.712 559.083 447.599 559.04 447.599 559.04V557.84L448.659 557.86C449.039 557.873 449.356 557.847 449.609 557.78C449.862 557.713 450.066 557.623 450.219 557.51C450.372 557.397 450.489 557.27 450.569 557.13C450.656 556.99 450.726 556.857 450.779 556.73L451.139 555.75L447.099 545.66H448.969L452.019 553.64L455.049 545.66H456.859L452.509 556.78C452.236 557.433 451.932 557.943 451.599 558.31C451.272 558.677 450.906 558.933 450.499 559.08C450.099 559.227 449.662 559.3 449.189 559.3ZM462.807 556.2C461.853 556.2 461.02 555.997 460.307 555.59C459.6 555.177 459.05 554.573 458.657 553.78C458.263 552.987 458.067 552.017 458.067 550.87C458.067 549.79 458.25 548.843 458.617 548.03C458.983 547.217 459.52 546.587 460.227 546.14C460.933 545.687 461.797 545.46 462.817 545.46C463.77 545.46 464.597 545.67 465.297 546.09C465.997 546.503 466.54 547.113 466.927 547.92C467.32 548.727 467.517 549.71 467.517 550.87C467.517 551.923 467.337 552.85 466.977 553.65C466.617 554.45 466.087 555.077 465.387 555.53C464.693 555.977 463.833 556.2 462.807 556.2ZM462.817 554.74C463.43 554.74 463.95 554.583 464.377 554.27C464.803 553.957 465.127 553.507 465.347 552.92C465.573 552.333 465.687 551.637 465.687 550.83C465.687 550.09 465.587 549.427 465.387 548.84C465.193 548.247 464.887 547.777 464.467 547.43C464.047 547.083 463.497 546.91 462.817 546.91C462.19 546.91 461.66 547.067 461.227 547.38C460.793 547.687 460.463 548.133 460.237 548.72C460.017 549.307 459.907 550.01 459.907 550.83C459.907 551.557 460.003 552.217 460.197 552.81C460.397 553.403 460.71 553.873 461.137 554.22C461.57 554.567 462.13 554.74 462.817 554.74ZM473.736 556.2C473.196 556.193 472.686 556.117 472.206 555.97C471.733 555.817 471.313 555.593 470.946 555.3C470.58 555.007 470.29 554.643 470.076 554.21C469.87 553.77 469.766 553.26 469.766 552.68V545.66H471.616V552.49C471.616 553.163 471.823 553.71 472.236 554.13C472.656 554.55 473.286 554.76 474.126 554.76C474.886 554.76 475.496 554.563 475.956 554.17C476.423 553.77 476.656 553.177 476.656 552.39V545.66H478.496V556H477.026L476.836 554.02C476.71 554.54 476.493 554.96 476.186 555.28C475.886 555.6 475.523 555.837 475.096 555.99C474.676 556.137 474.223 556.207 473.736 556.2ZM481.655 556V545.66H483.415V547.65C483.588 547.157 483.832 546.75 484.145 546.43C484.458 546.103 484.815 545.86 485.215 545.7C485.622 545.54 486.042 545.46 486.475 545.46C486.628 545.46 486.778 545.47 486.925 545.49C487.072 545.51 487.185 545.543 487.265 545.59V547.38C487.165 547.333 487.035 547.303 486.875 547.29C486.722 547.27 486.592 547.26 486.485 547.26C486.072 547.233 485.685 547.26 485.325 547.34C484.965 547.413 484.648 547.543 484.375 547.73C484.102 547.917 483.885 548.163 483.725 548.47C483.572 548.77 483.495 549.137 483.495 549.57V556H481.655ZM186.43 584.2C185.757 584.2 185.163 584.083 184.65 583.85C184.143 583.61 183.743 583.267 183.45 582.82C183.163 582.373 183.02 581.833 183.02 581.2C183.02 580.053 183.42 579.2 184.22 578.64C185.02 578.08 186.303 577.78 188.07 577.74L189.91 577.69V576.88C189.91 576.247 189.72 575.747 189.34 575.38C188.96 575.007 188.373 574.82 187.58 574.82C186.987 574.827 186.463 574.967 186.01 575.24C185.557 575.513 185.267 575.96 185.14 576.58H183.51C183.55 575.907 183.737 575.34 184.07 574.88C184.41 574.413 184.887 574.06 185.5 573.82C186.113 573.58 186.837 573.46 187.67 573.46C188.57 573.46 189.317 573.587 189.91 573.84C190.51 574.093 190.957 574.467 191.25 574.96C191.55 575.453 191.7 576.06 191.7 576.78V584H190.12L189.98 582.06C189.587 582.867 189.08 583.427 188.46 583.74C187.847 584.047 187.17 584.2 186.43 584.2ZM186.98 582.87C187.333 582.87 187.68 582.807 188.02 582.68C188.367 582.553 188.68 582.383 188.96 582.17C189.247 581.95 189.477 581.707 189.65 581.44C189.823 581.167 189.91 580.887 189.91 580.6V578.83L188.38 578.86C187.587 578.873 186.927 578.953 186.4 579.1C185.873 579.247 185.477 579.477 185.21 579.79C184.943 580.103 184.81 580.513 184.81 581.02C184.81 581.6 185.013 582.053 185.42 582.38C185.827 582.707 186.347 582.87 186.98 582.87ZM198.745 584.2C197.811 584.2 196.985 583.997 196.265 583.59C195.551 583.183 194.991 582.583 194.585 581.79C194.185 580.997 193.985 580.023 193.985 578.87C193.985 577.79 194.168 576.847 194.535 576.04C194.908 575.227 195.448 574.593 196.155 574.14C196.868 573.687 197.731 573.46 198.745 573.46C199.485 573.46 200.148 573.603 200.735 573.89C201.328 574.17 201.815 574.57 202.195 575.09C202.575 575.61 202.808 576.223 202.895 576.93H201.255C201.195 576.57 201.055 576.24 200.835 575.94C200.621 575.64 200.338 575.4 199.985 575.22C199.638 575.04 199.228 574.95 198.755 574.95C197.868 574.95 197.145 575.27 196.585 575.91C196.031 576.55 195.755 577.53 195.755 578.85C195.755 580.043 196.008 581 196.515 581.72C197.028 582.433 197.781 582.79 198.775 582.79C199.248 582.79 199.661 582.7 200.015 582.52C200.368 582.333 200.651 582.09 200.865 581.79C201.078 581.483 201.215 581.157 201.275 580.81H202.885C202.798 581.503 202.561 582.103 202.175 582.61C201.795 583.117 201.308 583.51 200.715 583.79C200.128 584.063 199.471 584.2 198.745 584.2ZM209.565 584.2C208.632 584.2 207.805 583.997 207.085 583.59C206.372 583.183 205.812 582.583 205.405 581.79C205.005 580.997 204.805 580.023 204.805 578.87C204.805 577.79 204.988 576.847 205.355 576.04C205.728 575.227 206.268 574.593 206.975 574.14C207.688 573.687 208.552 573.46 209.565 573.46C210.305 573.46 210.968 573.603 211.555 573.89C212.148 574.17 212.635 574.57 213.015 575.09C213.395 575.61 213.628 576.223 213.715 576.93H212.075C212.015 576.57 211.875 576.24 211.655 575.94C211.442 575.64 211.158 575.4 210.805 575.22C210.458 575.04 210.048 574.95 209.575 574.95C208.688 574.95 207.965 575.27 207.405 575.91C206.852 576.55 206.575 577.53 206.575 578.85C206.575 580.043 206.828 581 207.335 581.72C207.848 582.433 208.602 582.79 209.595 582.79C210.068 582.79 210.482 582.7 210.835 582.52C211.188 582.333 211.472 582.09 211.685 581.79C211.898 581.483 212.035 581.157 212.095 580.81H213.705C213.618 581.503 213.382 582.103 212.995 582.61C212.615 583.117 212.128 583.51 211.535 583.79C210.948 584.063 210.292 584.2 209.565 584.2ZM220.365 584.2C219.412 584.2 218.579 583.997 217.865 583.59C217.159 583.177 216.609 582.573 216.215 581.78C215.822 580.987 215.625 580.017 215.625 578.87C215.625 577.79 215.809 576.843 216.175 576.03C216.542 575.217 217.079 574.587 217.785 574.14C218.492 573.687 219.355 573.46 220.375 573.46C221.329 573.46 222.155 573.67 222.855 574.09C223.555 574.503 224.099 575.113 224.485 575.92C224.879 576.727 225.075 577.71 225.075 578.87C225.075 579.923 224.895 580.85 224.535 581.65C224.175 582.45 223.645 583.077 222.945 583.53C222.252 583.977 221.392 584.2 220.365 584.2ZM220.375 582.74C220.989 582.74 221.509 582.583 221.935 582.27C222.362 581.957 222.685 581.507 222.905 580.92C223.132 580.333 223.245 579.637 223.245 578.83C223.245 578.09 223.145 577.427 222.945 576.84C222.752 576.247 222.445 575.777 222.025 575.43C221.605 575.083 221.055 574.91 220.375 574.91C219.749 574.91 219.219 575.067 218.785 575.38C218.352 575.687 218.022 576.133 217.795 576.72C217.575 577.307 217.465 578.01 217.465 578.83C217.465 579.557 217.562 580.217 217.755 580.81C217.955 581.403 218.269 581.873 218.695 582.22C219.129 582.567 219.689 582.74 220.375 582.74ZM231.295 584.2C230.755 584.193 230.245 584.117 229.765 583.97C229.292 583.817 228.872 583.593 228.505 583.3C228.138 583.007 227.848 582.643 227.635 582.21C227.428 581.77 227.325 581.26 227.325 580.68V573.66H229.175V580.49C229.175 581.163 229.382 581.71 229.795 582.13C230.215 582.55 230.845 582.76 231.685 582.76C232.445 582.76 233.055 582.563 233.515 582.17C233.982 581.77 234.215 581.177 234.215 580.39V573.66H236.055V584H234.585L234.395 582.02C234.268 582.54 234.052 582.96 233.745 583.28C233.445 583.6 233.082 583.837 232.655 583.99C232.235 584.137 231.782 584.207 231.295 584.2ZM239.214 584V573.66H241.004V575.16C241.17 574.873 241.4 574.603 241.694 574.35C241.994 574.097 242.354 573.893 242.774 573.74C243.2 573.587 243.69 573.51 244.244 573.51C244.897 573.51 245.497 573.64 246.044 573.9C246.597 574.16 247.037 574.567 247.364 575.12C247.697 575.667 247.864 576.373 247.864 577.24V584H246.014V577.42C246.014 576.613 245.8 576.017 245.374 575.63C244.954 575.237 244.407 575.04 243.734 575.04C243.267 575.04 242.83 575.117 242.424 575.27C242.017 575.417 241.687 575.643 241.434 575.95C241.18 576.25 241.054 576.63 241.054 577.09V584H239.214ZM254.117 584.05C253.404 584.05 252.85 583.953 252.457 583.76C252.064 583.567 251.787 583.28 251.627 582.9C251.474 582.52 251.397 582.053 251.397 581.5V575.01H249.717V573.66H251.447L251.897 570.65H253.257V573.65H255.587V575.01H253.257V581.44C253.257 581.807 253.294 582.077 253.367 582.25C253.447 582.417 253.577 582.523 253.757 582.57C253.937 582.617 254.19 582.64 254.517 582.64H255.647V583.88C255.52 583.927 255.327 583.967 255.067 584C254.814 584.033 254.497 584.05 254.117 584.05ZM263.014 584V573.66H264.804V584H263.014ZM262.964 571.47V569.55H264.854V571.47H262.964ZM271.625 584.2C270.905 584.2 270.235 584.09 269.615 583.87C269.002 583.643 268.492 583.293 268.085 582.82C267.678 582.34 267.425 581.73 267.325 580.99H269.005C269.092 581.397 269.258 581.737 269.505 582.01C269.752 582.277 270.055 582.48 270.415 582.62C270.782 582.753 271.182 582.82 271.615 582.82C272.315 582.82 272.878 582.69 273.305 582.43C273.732 582.17 273.945 581.77 273.945 581.23C273.945 580.85 273.832 580.547 273.605 580.32C273.385 580.087 273.038 579.917 272.565 579.81L270.425 579.28C269.592 579.08 268.925 578.767 268.425 578.34C267.932 577.913 267.682 577.317 267.675 576.55C267.675 575.943 267.822 575.41 268.115 574.95C268.408 574.49 268.845 574.127 269.425 573.86C270.012 573.593 270.742 573.46 271.615 573.46C272.742 573.46 273.648 573.713 274.335 574.22C275.022 574.72 275.382 575.457 275.415 576.43H273.775C273.708 575.937 273.488 575.547 273.115 575.26C272.742 574.967 272.235 574.82 271.595 574.82C270.942 574.82 270.405 574.953 269.985 575.22C269.572 575.48 269.365 575.887 269.365 576.44C269.365 576.807 269.512 577.097 269.805 577.31C270.105 577.517 270.538 577.69 271.105 577.83L273.185 578.35C273.658 578.477 274.052 578.643 274.365 578.85C274.678 579.057 274.925 579.287 275.105 579.54C275.285 579.793 275.412 580.06 275.485 580.34C275.565 580.613 275.605 580.877 275.605 581.13C275.605 581.763 275.448 582.31 275.135 582.77C274.822 583.223 274.368 583.577 273.775 583.83C273.182 584.077 272.465 584.2 271.625 584.2ZM288.404 584.2C286.997 584.2 285.871 583.967 285.024 583.5C284.177 583.027 283.564 582.357 283.184 581.49C282.811 580.623 282.624 579.59 282.624 578.39V569.54H285.594V578.61C285.594 579.69 285.854 580.48 286.374 580.98C286.894 581.473 287.571 581.72 288.404 581.72C288.957 581.72 289.447 581.613 289.874 581.4C290.301 581.18 290.634 580.843 290.874 580.39C291.121 579.93 291.244 579.337 291.244 578.61V569.54H294.194V578.49C294.194 579.657 294.004 580.67 293.624 581.53C293.244 582.383 292.627 583.043 291.774 583.51C290.927 583.97 289.804 584.2 288.404 584.2ZM302.517 584.2C301.797 584.2 301.093 584.11 300.407 583.93C299.72 583.75 299.093 583.48 298.527 583.12C297.96 582.76 297.493 582.31 297.127 581.77C296.767 581.23 296.55 580.597 296.477 579.87H299.467C299.567 580.31 299.757 580.68 300.037 580.98C300.323 581.28 300.69 581.51 301.137 581.67C301.59 581.83 302.107 581.91 302.687 581.91C303.147 581.91 303.583 581.843 303.997 581.71C304.41 581.577 304.747 581.373 305.007 581.1C305.267 580.827 305.397 580.483 305.397 580.07C305.397 579.577 305.217 579.207 304.857 578.96C304.497 578.707 304.007 578.507 303.387 578.36L300.677 577.77C299.91 577.61 299.24 577.363 298.667 577.03C298.1 576.69 297.663 576.25 297.357 575.71C297.05 575.163 296.897 574.5 296.897 573.72C296.897 572.82 297.143 572.043 297.637 571.39C298.137 570.737 298.813 570.237 299.667 569.89C300.527 569.537 301.49 569.36 302.557 569.36C303.763 569.36 304.78 569.557 305.607 569.95C306.44 570.337 307.077 570.863 307.517 571.53C307.957 572.19 308.18 572.927 308.187 573.74H305.267C305.213 573.24 305.06 572.84 304.807 572.54C304.553 572.233 304.227 572.013 303.827 571.88C303.433 571.74 302.983 571.67 302.477 571.67C301.603 571.67 300.967 571.847 300.567 572.2C300.167 572.553 299.967 572.963 299.967 573.43C299.967 573.87 300.117 574.227 300.417 574.5C300.723 574.767 301.213 574.97 301.887 575.11L304.397 575.65C305.33 575.83 306.087 576.117 306.667 576.51C307.247 576.897 307.67 577.367 307.937 577.92C308.203 578.473 308.337 579.093 308.337 579.78C308.337 580.653 308.087 581.423 307.587 582.09C307.093 582.75 306.41 583.267 305.537 583.64C304.663 584.013 303.657 584.2 302.517 584.2ZM320.906 584.2C319.173 584.2 317.766 583.853 316.686 583.16C315.606 582.46 314.986 581.383 314.826 579.93L317.866 579.87C318.026 580.53 318.369 581.033 318.896 581.38C319.429 581.72 320.096 581.89 320.896 581.89C321.376 581.89 321.799 581.813 322.166 581.66C322.539 581.5 322.833 581.287 323.046 581.02C323.259 580.747 323.366 580.437 323.366 580.09C323.366 579.557 323.196 579.16 322.856 578.9C322.516 578.633 321.993 578.42 321.286 578.26L318.916 577.75C317.816 577.53 316.933 577.093 316.266 576.44C315.606 575.78 315.269 574.897 315.256 573.79C315.249 572.883 315.493 572.1 315.986 571.44C316.486 570.773 317.163 570.26 318.016 569.9C318.876 569.54 319.839 569.36 320.906 569.36C321.999 569.36 322.943 569.557 323.736 569.95C324.536 570.337 325.149 570.86 325.576 571.52C326.009 572.173 326.219 572.897 326.206 573.69L323.256 573.74C323.163 573.1 322.949 572.597 322.616 572.23C322.283 571.863 321.729 571.68 320.956 571.68C320.556 571.68 320.199 571.723 319.886 571.81C319.573 571.897 319.303 572.02 319.076 572.18C318.849 572.333 318.676 572.517 318.556 572.73C318.443 572.943 318.386 573.183 318.386 573.45C318.386 573.87 318.526 574.203 318.806 574.45C319.093 574.69 319.629 574.913 320.416 575.12L322.746 575.69C324.059 576.003 325.006 576.54 325.586 577.3C326.173 578.06 326.466 578.983 326.466 580.07C326.466 580.903 326.236 581.63 325.776 582.25C325.323 582.87 324.679 583.35 323.846 583.69C323.013 584.03 322.033 584.2 320.906 584.2ZM319.606 585.91V583.31H322.126V585.91H319.606ZM319.656 570.07V567.47H322.186V570.07H319.656ZM330.889 584V573.17H328.309V571.52C329.136 571.52 329.803 571.443 330.309 571.29C330.823 571.13 331.206 570.903 331.459 570.61C331.713 570.31 331.863 569.953 331.909 569.54H333.849V584H330.889ZM342.464 584.22C340.711 584.22 339.341 583.583 338.354 582.31C337.374 581.037 336.884 579.203 336.884 576.81C336.884 575.21 337.111 573.853 337.564 572.74C338.017 571.627 338.661 570.783 339.494 570.21C340.327 569.63 341.317 569.34 342.464 569.34C344.184 569.34 345.541 569.983 346.534 571.27C347.527 572.55 348.024 574.393 348.024 576.8C348.024 579.193 347.534 581.03 346.554 582.31C345.574 583.583 344.211 584.22 342.464 584.22ZM342.464 581.83C343.324 581.83 343.954 581.447 344.354 580.68C344.754 579.907 344.954 578.617 344.954 576.81C344.954 574.963 344.751 573.64 344.344 572.84C343.937 572.04 343.307 571.64 342.454 571.64C341.601 571.64 340.964 572.043 340.544 572.85C340.131 573.657 339.924 574.977 339.924 576.81C339.924 578.61 340.131 579.897 340.544 580.67C340.957 581.443 341.597 581.83 342.464 581.83ZM356.326 584L356.336 580.8H349.676V578.4L356.266 569.54H359.136V578.35H361.366V580.8H359.136V584H356.326ZM352.376 578.35H356.336V573.05L352.376 578.35ZM362.931 584V580.82H366.131V584H362.931ZM373.522 584.22C372.622 584.22 371.782 584.047 371.002 583.7C370.222 583.353 369.585 582.867 369.092 582.24C368.599 581.607 368.322 580.867 368.262 580.02H371.042C371.162 580.58 371.429 581.037 371.842 581.39C372.255 581.737 372.775 581.91 373.402 581.91C374.095 581.91 374.702 581.747 375.222 581.42C375.749 581.093 376.142 580.573 376.402 579.86C376.669 579.147 376.762 578.213 376.682 577.06C376.495 577.413 376.235 577.723 375.902 577.99C375.575 578.25 375.192 578.453 374.752 578.6C374.312 578.74 373.822 578.81 373.282 578.81C372.302 578.81 371.432 578.627 370.672 578.26C369.919 577.887 369.325 577.36 368.892 576.68C368.465 575.993 368.252 575.18 368.252 574.24C368.252 573.293 368.479 572.45 368.932 571.71C369.385 570.97 370.019 570.39 370.832 569.97C371.645 569.55 372.599 569.34 373.692 569.34C374.919 569.34 375.975 569.633 376.862 570.22C377.755 570.8 378.439 571.627 378.912 572.7C379.392 573.767 379.632 575.023 379.632 576.47C379.632 578.197 379.385 579.637 378.892 580.79C378.405 581.937 377.705 582.797 376.792 583.37C375.879 583.937 374.789 584.22 373.522 584.22ZM373.782 576.49C374.189 576.49 374.582 576.4 374.962 576.22C375.349 576.033 375.665 575.8 375.912 575.52C376.159 575.24 376.282 574.95 376.282 574.65C376.289 574.003 376.185 573.45 375.972 572.99C375.765 572.523 375.472 572.167 375.092 571.92C374.719 571.673 374.282 571.55 373.782 571.55C373.322 571.55 372.912 571.657 372.552 571.87C372.192 572.083 371.909 572.383 371.702 572.77C371.495 573.157 371.392 573.603 371.392 574.11C371.392 574.863 371.612 575.45 372.052 575.87C372.492 576.283 373.069 576.49 373.782 576.49ZM386.917 584.22C385.164 584.22 383.794 583.583 382.807 582.31C381.827 581.037 381.337 579.203 381.337 576.81C381.337 575.21 381.564 573.853 382.017 572.74C382.47 571.627 383.114 570.783 383.947 570.21C384.78 569.63 385.77 569.34 386.917 569.34C388.637 569.34 389.994 569.983 390.987 571.27C391.98 572.55 392.477 574.393 392.477 576.8C392.477 579.193 391.987 581.03 391.007 582.31C390.027 583.583 388.664 584.22 386.917 584.22ZM386.917 581.83C387.777 581.83 388.407 581.447 388.807 580.68C389.207 579.907 389.407 578.617 389.407 576.81C389.407 574.963 389.204 573.64 388.797 572.84C388.39 572.04 387.76 571.64 386.907 571.64C386.054 571.64 385.417 572.043 384.997 572.85C384.584 573.657 384.377 574.977 384.377 576.81C384.377 578.61 384.584 579.897 384.997 580.67C385.41 581.443 386.05 581.83 386.917 581.83ZM394.448 584V581.64H396.648V584H394.448Z"
                fill="#36536B"></path>
        </g>
    </g>
    <defs>
        <filter id="filter0_d_0_4910" x="1.13574" y="1.13892" width="835.299" height="1317.72"
            filterUnits="userSpaceOnUse" color-interpolation-filters="sRGB">
            <feFlood flood-opacity="0" result="BackgroundImageFix"></feFlood>
            <feColorMatrix in="SourceAlpha" type="matrix" values="0 0 0 0 0 0 0 0 0 0 0 0 0 0 0 0 0 0 127 0"
                result="hardAlpha"></feColorMatrix>
            <feOffset dx="25" dy="25"></feOffset>
            <feGaussianBlur stdDeviation="40"></feGaussianBlur>
            <feColorMatrix type="matrix" values="0 0 0 0 0.212302 0 0 0 0 0.32521 0 0 0 0 0.419299 0 0 0 0.300727 0">
            </feColorMatrix>
            <feBlend mode="normal" in2="BackgroundImageFix" result="effect1_dropShadow_0_4910"></feBlend>
            <feBlend mode="normal" in="SourceGraphic" in2="effect1_dropShadow_0_4910" result="shape"></feBlend>
        </filter>
        <filter id="filter1_d_0_4910" x="140" y="434" width="496" height="234" filterUnits="userSpaceOnUse"
            color-interpolation-filters="sRGB">
            <feFlood flood-opacity="0" result="BackgroundImageFix"></feFlood>
            <feColorMatrix in="SourceAlpha" type="matrix" values="0 0 0 0 0 0 0 0 0 0 0 0 0 0 0 0 0 0 127 0"
                result="hardAlpha"></feColorMatrix>
            <feMorphology radius="10" operator="erode" in="SourceAlpha" result="effect1_dropShadow_0_4910">
            </feMorphology>
            <feOffset dx="10" dy="10"></feOffset>
            <feGaussianBlur stdDeviation="12.5"></feGaussianBlur>
            <feColorMatrix type="matrix" values="0 0 0 0 0.212302 0 0 0 0 0.32521 0 0 0 0 0.419299 0 0 0 0.25 0">
            </feColorMatrix>
            <feBlend mode="normal" in2="BackgroundImageFix" result="effect1_dropShadow_0_4910"></feBlend>
            <feBlend mode="normal" in="SourceGraphic" in2="effect1_dropShadow_0_4910" result="shape"></feBlend>
        </filter>
        <linearGradient id="paint0_linear_0_4910" x1="126.029" y1="110" x2="126.029" y2="134.648"
            gradientUnits="userSpaceOnUse">
            <stop stop-color="#454545"></stop>
            <stop offset="0.226279" stop-color="#999999"></stop>
            <stop offset="1" stop-color="white"></stop>
        </linearGradient>
        <linearGradient id="paint1_linear_0_4910" x1="626.207" y1="281.495" x2="607.285" y2="281.495"
            gradientUnits="userSpaceOnUse">
            <stop stop-color="white" stop-opacity="0.01"></stop>
            <stop offset="0.222178" stop-color="#BABABA"></stop>
            <stop offset="0.54678" stop-color="white" stop-opacity="0.01"></stop>
            <stop offset="1" stop-color="white" stop-opacity="0.01"></stop>
        </linearGradient>
        <linearGradient id="paint2_linear_0_4910" x1="111.136" y1="280.974" x2="130.088" y2="280.974"
            gradientUnits="userSpaceOnUse">
            <stop stop-color="white" stop-opacity="0.01"></stop>
            <stop offset="0.222178" stop-color="#BABABA"></stop>
            <stop offset="0.54678" stop-color="white" stop-opacity="0.01"></stop>
            <stop offset="1" stop-color="white" stop-opacity="0.01"></stop>
        </linearGradient>
        <linearGradient id="paint3_linear_0_4910" x1="137.814" y1="134.889" x2="137.814" y2="1057.65"
            gradientUnits="userSpaceOnUse">
            <stop stop-color="#9CB6CD"></stop>
            <stop offset="0.420564" stop-color="#9AB3CA"></stop>
            <stop offset="0.716592" stop-color="#557496"></stop>
            <stop offset="1" stop-color="#475178"></stop>
        </linearGradient>
        <clipPath id="clip0_0_4910">
            <rect width="233" height="465" fill="white" transform="matrix(2 0 0 2 136.148 134.889)"></rect>
        </clipPath>
        <clipPath id="clip1_0_4910">
            <rect width="218" height="87" fill="white" transform="matrix(2 0 0 2 150 444)"></rect>
        </clipPath>
        <clipPath id="clip2_0_4910">
            <rect width="187" height="11" fill="white" transform="matrix(2 0 0 2 182 476)"></rect>
        </clipPath>
    </defs>
</svg>